<svg width="357" height="227" viewBox="0 0 357 227" fill="none" xmlns="http://www.w3.org/2000/svg">
<rect width="357" height="227" rx="21" fill="#F0F0F0"/>
<path d="M160.25 106.75H197.75M162.333 100.5H195.667M166.5 100.5V90.0835M174.833 100.5V90.0835M183.167 100.5V90.0835M191.5 100.5V90.0835M179 77.5978L179.015 77.5838M197.75 83.8335L183.429 71.1039C181.862 69.7108 181.078 69.0143 180.194 68.7498C179.415 68.5168 178.585 68.5168 177.806 68.7498C176.922 69.0143 176.138 69.7108 174.571 71.1039L160.25 83.8335H197.75Z" stroke="url(#paint0_linear_3_89)" stroke-width="4" stroke-linecap="round" stroke-linejoin="round"/>
<path d="M71.776 142.488H85.12V146.448H77.08V149.28H83.992V153.072H77.08V159H71.776V142.488ZM96.6398 159L96.3278 157.08C95.8318 157.768 95.1758 158.312 94.3598 158.712C93.5598 159.096 92.7118 159.288 91.8158 159.288C90.3438 159.288 89.2398 158.88 88.5038 158.064C87.7678 157.248 87.3998 156.072 87.3998 154.536V146.328H92.1758V153.96C92.1758 154.504 92.3118 154.944 92.5838 155.28C92.8718 155.6 93.2718 155.76 93.7838 155.76C94.3758 155.76 94.8558 155.568 95.2238 155.184C95.5918 154.8 95.7758 154.328 95.7758 153.768V146.328H100.552V159H96.6398ZM103.624 159V141.6H108.4V159H103.624ZM111.616 159V141.6H116.392V159H111.616ZM133.984 146.04C136.064 146.04 137.744 146.488 139.024 147.384C140.32 148.264 140.968 149.616 140.968 151.44H136.336C136.336 150 135.552 149.28 133.984 149.28C132.416 149.28 131.632 150.184 131.632 151.992V153.36C131.632 155.152 132.448 156.048 134.08 156.048C135.712 156.048 136.528 155.312 136.528 153.84H140.968C140.968 155.68 140.32 157.048 139.024 157.944C137.744 158.84 136.064 159.288 133.984 159.288C131.76 159.288 130.016 158.728 128.752 157.608C127.488 156.488 126.856 154.84 126.856 152.664C126.856 150.488 127.488 148.84 128.752 147.72C130.016 146.6 131.76 146.04 133.984 146.04ZM149.992 146.04C152.216 146.04 153.96 146.608 155.224 147.744C156.504 148.864 157.144 150.504 157.144 152.664C157.144 154.824 156.504 156.472 155.224 157.608C153.96 158.728 152.216 159.288 149.992 159.288C147.768 159.288 146.024 158.728 144.76 157.608C143.496 156.488 142.864 154.84 142.864 152.664C142.864 150.488 143.496 148.84 144.76 147.72C146.024 146.6 147.768 146.04 149.992 146.04ZM149.992 149.28C148.424 149.28 147.64 150.184 147.64 151.992V153.36C147.64 155.152 148.424 156.048 149.992 156.048C151.576 156.048 152.368 155.152 152.368 153.36V151.992C152.368 150.184 151.576 149.28 149.992 149.28ZM159.616 159V141.6H164.392V159H159.616ZM167.608 159V141.6H172.384V159H167.608ZM181.984 146.04C184.304 146.04 186.072 146.584 187.288 147.672C188.52 148.76 189.136 150.424 189.136 152.664V153.48H179.632C179.632 154.392 179.832 155.08 180.232 155.544C180.648 156.008 181.296 156.24 182.176 156.24C182.976 156.24 183.56 156.072 183.928 155.736C184.312 155.4 184.504 154.952 184.504 154.392H189.136C189.136 155.928 188.552 157.128 187.384 157.992C186.216 158.856 184.512 159.288 182.272 159.288C179.92 159.288 178.096 158.744 176.8 157.656C175.504 156.552 174.856 154.888 174.856 152.664C174.856 150.488 175.488 148.84 176.752 147.72C178.016 146.6 179.76 146.04 181.984 146.04ZM182.176 149.088C180.672 149.088 179.832 149.8 179.656 151.224H184.312C184.312 150.568 184.12 150.048 183.736 149.664C183.368 149.28 182.848 149.088 182.176 149.088ZM206.305 143.952C206.305 144.928 206.057 145.68 205.561 146.208C205.081 146.736 204.353 147.128 203.377 147.384C203.841 147.736 204.201 148.152 204.457 148.632C204.729 149.096 204.865 149.592 204.865 150.12C204.865 151.464 204.353 152.48 203.329 153.168C202.321 153.856 201.057 154.2 199.537 154.2H197.713C196.705 154.2 196.201 154.432 196.201 154.896C196.201 155.12 196.313 155.304 196.537 155.448C196.761 155.576 197.153 155.64 197.713 155.64H202.033C203.441 155.64 204.505 156.008 205.225 156.744C205.945 157.48 206.305 158.464 206.305 159.696C206.305 160.608 206.065 161.392 205.585 162.048C205.105 162.704 204.457 163.2 203.641 163.536C202.825 163.872 201.937 164.04 200.977 164.04H193.921C193.345 164.04 192.809 163.904 192.313 163.632C191.833 163.36 191.449 162.984 191.161 162.504C190.873 162.04 190.729 161.52 190.729 160.944C190.729 160.32 190.921 159.752 191.305 159.24C191.689 158.744 192.169 158.368 192.745 158.112C192.361 157.84 192.057 157.512 191.833 157.128C191.609 156.744 191.497 156.328 191.497 155.88C191.497 155.256 191.729 154.696 192.193 154.2C192.657 153.688 193.233 153.344 193.921 153.168C193.297 152.768 192.801 152.312 192.433 151.8C192.065 151.272 191.881 150.72 191.881 150.144C191.881 148.672 192.473 147.624 193.657 147C194.857 146.36 196.441 146.04 198.409 146.04C199.273 146.04 199.969 146.088 200.497 146.184C201.281 145.688 201.785 145.24 202.009 144.84C202.249 144.424 202.369 144.128 202.369 143.952H206.305ZM198.361 148.536C197.833 148.536 197.401 148.672 197.065 148.944C196.729 149.216 196.561 149.608 196.561 150.12C196.561 150.648 196.713 151.048 197.017 151.32C197.337 151.576 197.785 151.704 198.361 151.704C198.937 151.704 199.385 151.576 199.705 151.32C200.041 151.048 200.209 150.648 200.209 150.12C200.209 149.592 200.041 149.2 199.705 148.944C199.385 148.672 198.937 148.536 198.361 148.536ZM196.513 159C196.145 159 195.841 159.096 195.601 159.288C195.377 159.496 195.265 159.784 195.265 160.152C195.265 160.52 195.385 160.816 195.625 161.04C195.865 161.264 196.161 161.376 196.513 161.376H200.257C200.609 161.376 200.905 161.264 201.145 161.04C201.401 160.832 201.529 160.544 201.529 160.176C201.529 159.808 201.409 159.52 201.169 159.312C200.929 159.104 200.625 159 200.257 159H196.513ZM214.609 146.04C216.929 146.04 218.697 146.584 219.913 147.672C221.145 148.76 221.761 150.424 221.761 152.664V153.48H212.257C212.257 154.392 212.457 155.08 212.857 155.544C213.273 156.008 213.921 156.24 214.801 156.24C215.601 156.24 216.185 156.072 216.553 155.736C216.937 155.4 217.129 154.952 217.129 154.392H221.761C221.761 155.928 221.177 157.128 220.009 157.992C218.841 158.856 217.137 159.288 214.897 159.288C212.545 159.288 210.721 158.744 209.425 157.656C208.129 156.552 207.481 154.888 207.481 152.664C207.481 150.488 208.113 148.84 209.377 147.72C210.641 146.6 212.385 146.04 214.609 146.04ZM214.801 149.088C213.297 149.088 212.457 149.8 212.281 151.224H216.937C216.937 150.568 216.745 150.048 216.361 149.664C215.993 149.28 215.473 149.088 214.801 149.088ZM238.609 146.04C240.689 146.04 242.369 146.488 243.649 147.384C244.945 148.264 245.593 149.616 245.593 151.44H240.961C240.961 150 240.177 149.28 238.609 149.28C237.041 149.28 236.257 150.184 236.257 151.992V153.36C236.257 155.152 237.073 156.048 238.705 156.048C240.337 156.048 241.153 155.312 241.153 153.84H245.593C245.593 155.68 244.945 157.048 243.649 157.944C242.369 158.84 240.689 159.288 238.609 159.288C236.385 159.288 234.641 158.728 233.377 157.608C232.113 156.488 231.481 154.84 231.481 152.664C231.481 150.488 232.113 148.84 233.377 147.72C234.641 146.6 236.385 146.04 238.609 146.04ZM254.617 146.04C256.841 146.04 258.585 146.608 259.849 147.744C261.129 148.864 261.769 150.504 261.769 152.664C261.769 154.824 261.129 156.472 259.849 157.608C258.585 158.728 256.841 159.288 254.617 159.288C252.393 159.288 250.649 158.728 249.385 157.608C248.121 156.488 247.489 154.84 247.489 152.664C247.489 150.488 248.121 148.84 249.385 147.72C250.649 146.6 252.393 146.04 254.617 146.04ZM254.617 149.28C253.049 149.28 252.265 150.184 252.265 151.992V153.36C252.265 155.152 253.049 156.048 254.617 156.048C256.201 156.048 256.993 155.152 256.993 153.36V151.992C256.993 150.184 256.201 149.28 254.617 149.28ZM270.097 146.04C271.793 146.04 273.225 146.376 274.393 147.048C275.577 147.704 276.169 148.728 276.169 150.12H271.729C271.729 149.656 271.521 149.328 271.105 149.136C270.817 148.976 270.457 148.896 270.025 148.896C268.873 148.896 268.297 149.168 268.297 149.712C268.297 150.016 268.497 150.232 268.897 150.36C269.297 150.488 269.953 150.624 270.865 150.768C271.985 150.928 272.921 151.12 273.673 151.344C274.425 151.552 275.081 151.936 275.641 152.496C276.201 153.04 276.481 153.808 276.481 154.8C276.481 156.416 275.873 157.568 274.657 158.256C273.457 158.944 271.881 159.288 269.929 159.288C268.809 159.288 267.753 159.136 266.761 158.832C265.769 158.512 264.961 158.024 264.337 157.368C263.713 156.712 263.401 155.88 263.401 154.872H267.841V154.968C267.857 155.512 268.081 155.896 268.513 156.12C268.961 156.328 269.433 156.432 269.929 156.432C271.257 156.432 271.921 156.12 271.921 155.496C271.921 155.176 271.713 154.944 271.297 154.8C270.881 154.656 270.201 154.504 269.257 154.344C268.121 154.152 267.185 153.944 266.449 153.72C265.729 153.496 265.097 153.12 264.553 152.592C264.009 152.048 263.737 151.296 263.737 150.336C263.737 148.784 264.321 147.68 265.489 147.024C266.673 146.368 268.209 146.04 270.097 146.04ZM287.193 146.328V149.568H284.505V154.392C284.505 154.968 284.601 155.392 284.793 155.664C284.985 155.92 285.337 156.048 285.849 156.048H287.193V158.856C286.809 158.984 286.313 159.088 285.705 159.168C285.097 159.248 284.569 159.288 284.121 159.288C282.713 159.288 281.625 159.032 280.857 158.52C280.105 158.008 279.729 157.136 279.729 155.904V149.568H277.953V146.328H279.921L280.953 142.488H284.505V146.328H287.193Z" fill="#808080"/>
<defs>
<linearGradient id="paint0_linear_3_89" x1="160.25" y1="67.8125" x2="203.469" y2="112.031" gradientUnits="userSpaceOnUse">
<stop stop-color="#DD95E6"/>
<stop offset="1" stop-color="#7176F6"/>
</linearGradient>
</defs>
</svg>
