<svg width="357" height="227" viewBox="0 0 357 227" fill="none" xmlns="http://www.w3.org/2000/svg">
<rect width="357" height="227" rx="21" fill="#F0F0F0"/>
<g clip-path="url(#clip0_3_90)">
<path d="M200.713 73.0942C202.762 70.347 203.994 67.4948 204 65.4569C204.024 64.9103 203.89 64.3684 203.613 63.8964C203.492 63.6925 203.322 63.5213 203.12 63.3978C202.644 63.1106 202.094 62.9721 201.539 63C199.506 63 196.653 64.231 193.905 66.2859C191.211 68.4984 188.697 70.9211 186.387 73.5313C185.865 74.0811 185.315 74.6591 184.736 75.2652L178.781 73.4801L178.798 73.463C179.044 73.2123 179.182 72.8746 179.181 72.5231C179.18 72.1716 179.041 71.8345 178.793 71.5849L177.719 70.5083C177.467 70.2567 177.126 70.1152 176.771 70.1148C176.596 70.1144 176.423 70.1487 176.262 70.2159C176.101 70.283 175.955 70.3815 175.832 70.5058L174.223 72.1159L173.369 71.8598C173.569 71.6035 173.668 71.2832 173.648 70.959C173.629 70.6348 173.491 70.3288 173.262 70.0986L172.181 69.0186C171.93 68.7682 171.589 68.6279 171.235 68.6285C171.06 68.6277 170.887 68.6619 170.726 68.7291C170.564 68.7962 170.418 68.8949 170.296 69.0195L168.819 70.4964L162.762 68.6823C162.622 68.641 162.476 68.6202 162.33 68.6208C161.912 68.62 161.51 68.7827 161.21 69.0741L159.081 71.2033C158.845 71.4349 158.71 71.7508 158.706 72.0817C158.704 72.3065 158.763 72.5277 158.877 72.7211C158.992 72.9145 159.158 73.0725 159.356 73.1779L172.092 80.2927C172.201 80.3618 172.305 80.4404 172.401 80.5275L176.032 84.1575C172.636 87.7354 169.61 91.2005 167.252 94.215C167.032 94.495 166.825 94.769 166.619 95.0388L156.766 94.1441C156.709 94.1371 156.652 94.1337 156.595 94.1339C156.14 94.143 155.704 94.3231 155.375 94.6384L154.382 95.6296C154.264 95.7434 154.169 95.8797 154.104 96.0305C154.038 96.1813 154.004 96.3437 154.002 96.508C154.001 96.7425 154.068 96.9723 154.195 97.1693C154.322 97.3663 154.504 97.5221 154.718 97.6179L161.649 100.911C161.744 100.965 161.833 101.028 161.915 101.101L162.49 101.671C162.326 102.097 162.232 102.548 162.213 103.004C162.203 103.239 162.241 103.473 162.324 103.693C162.408 103.913 162.534 104.114 162.697 104.284L162.721 104.307L162.728 104.311C162.898 104.472 163.099 104.596 163.317 104.679C163.536 104.761 163.769 104.798 164.003 104.789C164.455 104.769 164.901 104.676 165.324 104.514L165.908 105.096C165.977 105.176 166.037 105.262 166.089 105.352L169.374 112.268C169.47 112.482 169.625 112.664 169.82 112.793C170.016 112.921 170.245 112.991 170.479 112.994H170.486C170.649 112.993 170.81 112.961 170.961 112.897C171.111 112.834 171.247 112.741 171.362 112.625L172.379 111.601C172.687 111.269 172.86 110.835 172.865 110.383C172.865 110.327 172.865 110.283 172.861 110.26L171.964 100.374C172.234 100.17 172.507 99.9604 172.788 99.7427C175.806 97.3814 179.276 94.3533 182.843 90.9615L186.477 94.5983C186.566 94.694 186.646 94.7984 186.714 94.9099L193.815 107.622C193.906 107.796 194.036 107.945 194.196 108.058C194.355 108.171 194.539 108.245 194.732 108.273C194.925 108.302 195.123 108.284 195.308 108.222C195.493 108.159 195.661 108.054 195.798 107.914L197.942 105.772C198.226 105.469 198.383 105.069 198.381 104.653C198.381 104.511 198.361 104.37 198.322 104.234L196.508 98.1771L197.984 96.6976C198.233 96.4475 198.372 96.1091 198.372 95.7564C198.372 95.4036 198.233 95.0652 197.984 94.8151L196.901 93.7335C196.672 93.5034 196.366 93.3652 196.042 93.3449C195.718 93.3246 195.397 93.4237 195.141 93.6233L194.885 92.7739L196.496 91.1638C196.745 90.9121 196.884 90.5726 196.884 90.2188C196.885 90.0443 196.851 89.8714 196.785 89.7102C196.718 89.5489 196.62 89.4026 196.496 89.2797L195.419 88.2023C195.295 88.0776 195.147 87.9785 194.985 87.911C194.822 87.8434 194.648 87.8086 194.472 87.8086C194.296 87.8086 194.122 87.8434 193.96 87.911C193.797 87.9785 193.65 88.0776 193.526 88.2023L193.515 88.2126L191.731 82.2571C192.347 81.6697 192.934 81.112 193.492 80.5838C196.723 77.5224 199.056 75.3087 200.713 73.0942Z" fill="url(#paint0_linear_3_90)"/>
</g>
<path d="M52.28 146.712V159H46.976V146.712H41.552V142.488H57.68V146.712H52.28ZM66.4331 146.016C66.8011 146.016 67.1291 146.064 67.4171 146.16C67.7051 146.24 67.8491 146.288 67.8491 146.304V150.312H66.3131C65.3211 150.312 64.6011 150.568 64.1531 151.08C63.7211 151.592 63.5051 152.352 63.5051 153.36V159H58.7291V146.328H62.6411L62.9531 148.248C63.2411 147.512 63.6971 146.96 64.3211 146.592C64.9451 146.208 65.6491 146.016 66.4331 146.016ZM76.0556 146.04C77.9916 146.04 79.5676 146.368 80.7836 147.024C81.9996 147.664 82.6076 148.712 82.6076 150.168V155.112C82.6076 155.384 82.6716 155.608 82.7996 155.784C82.9276 155.96 83.1196 156.048 83.3756 156.048H84.2396V158.808C84.1916 158.84 84.0636 158.896 83.8556 158.976C83.6636 159.04 83.3836 159.104 83.0156 159.168C82.6476 159.248 82.2236 159.288 81.7436 159.288C80.8156 159.288 80.0476 159.152 79.4396 158.88C78.8476 158.592 78.4396 158.2 78.2156 157.704C77.6076 158.184 76.9276 158.568 76.1756 158.856C75.4236 159.144 74.5436 159.288 73.5356 159.288C70.5596 159.288 69.0716 158.104 69.0716 155.736C69.0716 154.504 69.3996 153.568 70.0556 152.928C70.7276 152.272 71.6876 151.824 72.9356 151.584C74.1836 151.344 75.8156 151.224 77.8316 151.224V150.6C77.8316 150.104 77.6556 149.728 77.3036 149.472C76.9676 149.216 76.5276 149.088 75.9836 149.088C75.4876 149.088 75.0556 149.176 74.6876 149.352C74.3356 149.528 74.1596 149.808 74.1596 150.192V150.288H69.4556C69.4396 150.208 69.4316 150.096 69.4316 149.952C69.4316 148.752 69.9996 147.8 71.1356 147.096C72.2876 146.392 73.9276 146.04 76.0556 146.04ZM77.8316 153.48C76.4716 153.48 75.4636 153.632 74.8076 153.936C74.1676 154.224 73.8476 154.616 73.8476 155.112C73.8476 155.912 74.3916 156.312 75.4796 156.312C76.1036 156.312 76.6476 156.144 77.1116 155.808C77.5916 155.472 77.8316 155.056 77.8316 154.56V153.48ZM94.5354 146.04C96.0074 146.04 97.1114 146.448 97.8474 147.264C98.5834 148.08 98.9514 149.256 98.9514 150.792V159H94.1754V151.368C94.1754 150.824 94.0314 150.392 93.7434 150.072C93.4714 149.736 93.0794 149.568 92.5674 149.568C91.9754 149.568 91.4954 149.76 91.1274 150.144C90.7594 150.528 90.5754 151 90.5754 151.56V159H85.7994V146.328H89.7114L90.0234 148.248C90.5194 147.576 91.1674 147.04 91.9674 146.64C92.7834 146.24 93.6394 146.04 94.5354 146.04ZM107.831 146.04C109.527 146.04 110.959 146.376 112.127 147.048C113.311 147.704 113.903 148.728 113.903 150.12H109.463C109.463 149.656 109.255 149.328 108.839 149.136C108.551 148.976 108.191 148.896 107.759 148.896C106.607 148.896 106.031 149.168 106.031 149.712C106.031 150.016 106.231 150.232 106.631 150.36C107.031 150.488 107.687 150.624 108.599 150.768C109.719 150.928 110.655 151.12 111.407 151.344C112.159 151.552 112.815 151.936 113.375 152.496C113.935 153.04 114.215 153.808 114.215 154.8C114.215 156.416 113.607 157.568 112.391 158.256C111.191 158.944 109.615 159.288 107.663 159.288C106.543 159.288 105.487 159.136 104.495 158.832C103.503 158.512 102.695 158.024 102.071 157.368C101.447 156.712 101.135 155.88 101.135 154.872H105.575V154.968C105.591 155.512 105.815 155.896 106.247 156.12C106.695 156.328 107.167 156.432 107.663 156.432C108.991 156.432 109.655 156.12 109.655 155.496C109.655 155.176 109.447 154.944 109.031 154.8C108.615 154.656 107.935 154.504 106.991 154.344C105.855 154.152 104.919 153.944 104.183 153.72C103.463 153.496 102.831 153.12 102.287 152.592C101.743 152.048 101.471 151.296 101.471 150.336C101.471 148.784 102.055 147.68 103.223 147.024C104.407 146.368 105.943 146.04 107.831 146.04ZM124.831 146.04C126.543 146.04 127.863 146.6 128.791 147.72C129.719 148.84 130.183 150.496 130.183 152.688C130.183 154.864 129.719 156.512 128.791 157.632C127.863 158.736 126.543 159.288 124.831 159.288C123.359 159.288 122.175 158.808 121.279 157.848V163.728H116.503V146.328H120.391L120.799 148.128C121.727 146.736 123.071 146.04 124.831 146.04ZM123.343 149.568C122.639 149.568 122.111 149.816 121.759 150.312C121.407 150.808 121.231 151.456 121.231 152.256V153.048C121.231 153.848 121.407 154.504 121.759 155.016C122.111 155.512 122.639 155.76 123.343 155.76C124.719 155.76 125.407 154.936 125.407 153.288V152.016C125.407 150.384 124.719 149.568 123.343 149.568ZM139.039 146.04C141.263 146.04 143.007 146.608 144.271 147.744C145.551 148.864 146.191 150.504 146.191 152.664C146.191 154.824 145.551 156.472 144.271 157.608C143.007 158.728 141.263 159.288 139.039 159.288C136.815 159.288 135.071 158.728 133.807 157.608C132.543 156.488 131.911 154.84 131.911 152.664C131.911 150.488 132.543 148.84 133.807 147.72C135.071 146.6 136.815 146.04 139.039 146.04ZM139.039 149.28C137.471 149.28 136.687 150.184 136.687 151.992V153.36C136.687 155.152 137.471 156.048 139.039 156.048C140.623 156.048 141.415 155.152 141.415 153.36V151.992C141.415 150.184 140.623 149.28 139.039 149.28ZM156.199 146.016C156.567 146.016 156.895 146.064 157.183 146.16C157.471 146.24 157.615 146.288 157.615 146.304V150.312H156.079C155.087 150.312 154.367 150.568 153.919 151.08C153.487 151.592 153.271 152.352 153.271 153.36V159H148.495V146.328H152.407L152.719 148.248C153.007 147.512 153.463 146.96 154.087 146.592C154.711 146.208 155.415 146.016 156.199 146.016ZM168.802 146.328V149.568H166.114V154.392C166.114 154.968 166.21 155.392 166.402 155.664C166.594 155.92 166.946 156.048 167.458 156.048H168.802V158.856C168.418 158.984 167.922 159.088 167.314 159.168C166.706 159.248 166.178 159.288 165.73 159.288C164.322 159.288 163.234 159.032 162.466 158.52C161.714 158.008 161.338 157.136 161.338 155.904V149.568H159.562V146.328H161.53L162.562 142.488H166.114V146.328H168.802ZM177.282 146.04C179.218 146.04 180.794 146.368 182.01 147.024C183.226 147.664 183.834 148.712 183.834 150.168V155.112C183.834 155.384 183.898 155.608 184.026 155.784C184.154 155.96 184.346 156.048 184.602 156.048H185.466V158.808C185.418 158.84 185.29 158.896 185.082 158.976C184.89 159.04 184.61 159.104 184.242 159.168C183.874 159.248 183.45 159.288 182.97 159.288C182.042 159.288 181.274 159.152 180.666 158.88C180.074 158.592 179.666 158.2 179.442 157.704C178.834 158.184 178.154 158.568 177.402 158.856C176.65 159.144 175.77 159.288 174.762 159.288C171.786 159.288 170.298 158.104 170.298 155.736C170.298 154.504 170.626 153.568 171.282 152.928C171.954 152.272 172.914 151.824 174.162 151.584C175.41 151.344 177.042 151.224 179.058 151.224V150.6C179.058 150.104 178.882 149.728 178.53 149.472C178.194 149.216 177.754 149.088 177.21 149.088C176.714 149.088 176.282 149.176 175.914 149.352C175.562 149.528 175.386 149.808 175.386 150.192V150.288H170.682C170.666 150.208 170.658 150.096 170.658 149.952C170.658 148.752 171.226 147.8 172.362 147.096C173.514 146.392 175.154 146.04 177.282 146.04ZM179.058 153.48C177.698 153.48 176.69 153.632 176.034 153.936C175.394 154.224 175.074 154.616 175.074 155.112C175.074 155.912 175.618 156.312 176.706 156.312C177.33 156.312 177.874 156.144 178.338 155.808C178.818 155.472 179.058 155.056 179.058 154.56V153.48ZM195.076 146.328V149.568H192.388V154.392C192.388 154.968 192.484 155.392 192.676 155.664C192.868 155.92 193.22 156.048 193.732 156.048H195.076V158.856C194.692 158.984 194.196 159.088 193.588 159.168C192.98 159.248 192.452 159.288 192.004 159.288C190.596 159.288 189.508 159.032 188.74 158.52C187.988 158.008 187.612 157.136 187.612 155.904V149.568H185.836V146.328H187.804L188.836 142.488H192.388V146.328H195.076ZM197.46 144.84V141.6H202.236V144.84H197.46ZM197.46 159V146.328H202.236V159H197.46ZM211.836 146.04C214.06 146.04 215.804 146.608 217.068 147.744C218.348 148.864 218.988 150.504 218.988 152.664C218.988 154.824 218.348 156.472 217.068 157.608C215.804 158.728 214.06 159.288 211.836 159.288C209.612 159.288 207.868 158.728 206.604 157.608C205.34 156.488 204.708 154.84 204.708 152.664C204.708 150.488 205.34 148.84 206.604 147.72C207.868 146.6 209.612 146.04 211.836 146.04ZM211.836 149.28C210.268 149.28 209.484 150.184 209.484 151.992V153.36C209.484 155.152 210.268 156.048 211.836 156.048C213.42 156.048 214.212 155.152 214.212 153.36V151.992C214.212 150.184 213.42 149.28 211.836 149.28ZM230.028 146.04C231.5 146.04 232.604 146.448 233.34 147.264C234.076 148.08 234.444 149.256 234.444 150.792V159H229.668V151.368C229.668 150.824 229.524 150.392 229.236 150.072C228.964 149.736 228.572 149.568 228.06 149.568C227.468 149.568 226.988 149.76 226.62 150.144C226.252 150.528 226.068 151 226.068 151.56V159H221.292V146.328H225.204L225.516 148.248C226.012 147.576 226.66 147.04 227.46 146.64C228.276 146.24 229.132 146.04 230.028 146.04ZM251.844 146.04C253.924 146.04 255.604 146.488 256.884 147.384C258.18 148.264 258.828 149.616 258.828 151.44H254.196C254.196 150 253.412 149.28 251.844 149.28C250.276 149.28 249.492 150.184 249.492 151.992V153.36C249.492 155.152 250.308 156.048 251.94 156.048C253.572 156.048 254.388 155.312 254.388 153.84H258.828C258.828 155.68 258.18 157.048 256.884 157.944C255.604 158.84 253.924 159.288 251.844 159.288C249.62 159.288 247.876 158.728 246.612 157.608C245.348 156.488 244.716 154.84 244.716 152.664C244.716 150.488 245.348 148.84 246.612 147.72C247.876 146.6 249.62 146.04 251.844 146.04ZM267.851 146.04C270.075 146.04 271.819 146.608 273.083 147.744C274.363 148.864 275.003 150.504 275.003 152.664C275.003 154.824 274.363 156.472 273.083 157.608C271.819 158.728 270.075 159.288 267.851 159.288C265.627 159.288 263.883 158.728 262.619 157.608C261.355 156.488 260.723 154.84 260.723 152.664C260.723 150.488 261.355 148.84 262.619 147.72C263.883 146.6 265.627 146.04 267.851 146.04ZM267.851 149.28C266.283 149.28 265.499 150.184 265.499 151.992V153.36C265.499 155.152 266.283 156.048 267.851 156.048C269.435 156.048 270.227 155.152 270.227 153.36V151.992C270.227 150.184 269.435 149.28 267.851 149.28ZM283.331 146.04C285.027 146.04 286.459 146.376 287.627 147.048C288.811 147.704 289.403 148.728 289.403 150.12H284.963C284.963 149.656 284.755 149.328 284.339 149.136C284.051 148.976 283.691 148.896 283.259 148.896C282.107 148.896 281.531 149.168 281.531 149.712C281.531 150.016 281.731 150.232 282.131 150.36C282.531 150.488 283.187 150.624 284.099 150.768C285.219 150.928 286.155 151.12 286.907 151.344C287.659 151.552 288.315 151.936 288.875 152.496C289.435 153.04 289.715 153.808 289.715 154.8C289.715 156.416 289.107 157.568 287.891 158.256C286.691 158.944 285.115 159.288 283.163 159.288C282.043 159.288 280.987 159.136 279.995 158.832C279.003 158.512 278.195 158.024 277.571 157.368C276.947 156.712 276.635 155.88 276.635 154.872H281.075V154.968C281.091 155.512 281.315 155.896 281.747 156.12C282.195 156.328 282.667 156.432 283.163 156.432C284.491 156.432 285.155 156.12 285.155 155.496C285.155 155.176 284.947 154.944 284.531 154.8C284.115 154.656 283.435 154.504 282.491 154.344C281.355 154.152 280.419 153.944 279.683 153.72C278.963 153.496 278.331 153.12 277.787 152.592C277.243 152.048 276.971 151.296 276.971 150.336C276.971 148.784 277.555 147.68 278.723 147.024C279.907 146.368 281.443 146.04 283.331 146.04ZM300.427 146.328V149.568H297.739V154.392C297.739 154.968 297.835 155.392 298.027 155.664C298.219 155.92 298.571 156.048 299.083 156.048H300.427V158.856C300.043 158.984 299.547 159.088 298.939 159.168C298.331 159.248 297.803 159.288 297.355 159.288C295.947 159.288 294.859 159.032 294.091 158.52C293.339 158.008 292.963 157.136 292.963 155.904V149.568H291.187V146.328H293.155L294.187 142.488H297.739V146.328H300.427ZM308.667 146.04C310.363 146.04 311.795 146.376 312.963 147.048C314.147 147.704 314.739 148.728 314.739 150.12H310.299C310.299 149.656 310.091 149.328 309.675 149.136C309.387 148.976 309.027 148.896 308.595 148.896C307.443 148.896 306.867 149.168 306.867 149.712C306.867 150.016 307.067 150.232 307.467 150.36C307.867 150.488 308.523 150.624 309.435 150.768C310.555 150.928 311.491 151.12 312.243 151.344C312.995 151.552 313.651 151.936 314.211 152.496C314.771 153.04 315.051 153.808 315.051 154.8C315.051 156.416 314.443 157.568 313.227 158.256C312.027 158.944 310.451 159.288 308.499 159.288C307.379 159.288 306.323 159.136 305.331 158.832C304.339 158.512 303.531 158.024 302.907 157.368C302.283 156.712 301.971 155.88 301.971 154.872H306.411V154.968C306.427 155.512 306.651 155.896 307.083 156.12C307.531 156.328 308.003 156.432 308.499 156.432C309.827 156.432 310.491 156.12 310.491 155.496C310.491 155.176 310.283 154.944 309.867 154.8C309.451 154.656 308.771 154.504 307.827 154.344C306.691 154.152 305.755 153.944 305.019 153.72C304.299 153.496 303.667 153.12 303.123 152.592C302.579 152.048 302.307 151.296 302.307 150.336C302.307 148.784 302.891 147.68 304.059 147.024C305.243 146.368 306.779 146.04 308.667 146.04Z" fill="#808080"/>
<defs>
<linearGradient id="paint0_linear_3_90" x1="159.562" y1="50.9375" x2="179.002" y2="112.994" gradientUnits="userSpaceOnUse">
<stop stop-color="#DB94E6"/>
<stop offset="1" stop-color="#7176F6"/>
</linearGradient>
<clipPath id="clip0_3_90">
<rect width="50" height="50" fill="white" transform="translate(154 63)"/>
</clipPath>
</defs>
</svg>
