<svg width="357" height="227" viewBox="0 0 357 227" fill="none" xmlns="http://www.w3.org/2000/svg">
<rect width="357" height="227" rx="21" fill="#F0F0F0"/>
<path fill-rule="evenodd" clip-rule="evenodd" d="M163.578 67.4375C160.739 67.4375 158.438 69.7392 158.438 72.5781V99.5664C158.438 102.405 160.86 103.824 163.578 104.707L177.715 108.562V71.293C171.274 69.5657 163.578 67.4375 163.578 67.4375ZM194.422 67.4375C194.422 67.4375 186.983 69.486 180.222 71.293H180.285V108.562C187.504 106.636 194.422 104.707 194.422 104.707C197.06 104.025 199.562 102.405 199.562 99.5664V72.5781C199.562 69.7392 197.261 67.4375 194.422 67.4375Z" fill="url(#paint0_linear_3_91)"/>
<path d="M48.776 142.488H54.08V154.776H62.552V159H48.776V142.488ZM70.9998 146.04C73.3198 146.04 75.0878 146.584 76.3038 147.672C77.5358 148.76 78.1518 150.424 78.1518 152.664V153.48H68.6478C68.6478 154.392 68.8478 155.08 69.2478 155.544C69.6638 156.008 70.3118 156.24 71.1918 156.24C71.9918 156.24 72.5758 156.072 72.9438 155.736C73.3278 155.4 73.5198 154.952 73.5198 154.392H78.1518C78.1518 155.928 77.5678 157.128 76.3998 157.992C75.2318 158.856 73.5278 159.288 71.2878 159.288C68.9358 159.288 67.1118 158.744 65.8158 157.656C64.5198 156.552 63.8718 154.888 63.8718 152.664C63.8718 150.488 64.5038 148.84 65.7678 147.72C67.0318 146.6 68.7758 146.04 70.9998 146.04ZM71.1918 149.088C69.6878 149.088 68.8478 149.8 68.6718 151.224H73.3278C73.3278 150.568 73.1358 150.048 72.7518 149.664C72.3838 149.28 71.8638 149.088 71.1918 149.088ZM86.7196 146.04C88.6556 146.04 90.2316 146.368 91.4476 147.024C92.6636 147.664 93.2716 148.712 93.2716 150.168V155.112C93.2716 155.384 93.3356 155.608 93.4636 155.784C93.5916 155.96 93.7836 156.048 94.0396 156.048H94.9036V158.808C94.8556 158.84 94.7276 158.896 94.5196 158.976C94.3276 159.04 94.0476 159.104 93.6796 159.168C93.3116 159.248 92.8876 159.288 92.4076 159.288C91.4796 159.288 90.7116 159.152 90.1036 158.88C89.5116 158.592 89.1036 158.2 88.8796 157.704C88.2716 158.184 87.5916 158.568 86.8396 158.856C86.0876 159.144 85.2076 159.288 84.1996 159.288C81.2236 159.288 79.7356 158.104 79.7356 155.736C79.7356 154.504 80.0636 153.568 80.7196 152.928C81.3916 152.272 82.3516 151.824 83.5996 151.584C84.8476 151.344 86.4796 151.224 88.4956 151.224V150.6C88.4956 150.104 88.3196 149.728 87.9676 149.472C87.6316 149.216 87.1916 149.088 86.6476 149.088C86.1516 149.088 85.7196 149.176 85.3516 149.352C84.9996 149.528 84.8236 149.808 84.8236 150.192V150.288H80.1196C80.1036 150.208 80.0956 150.096 80.0956 149.952C80.0956 148.752 80.6636 147.8 81.7996 147.096C82.9516 146.392 84.5916 146.04 86.7196 146.04ZM88.4956 153.48C87.1356 153.48 86.1276 153.632 85.4716 153.936C84.8316 154.224 84.5116 154.616 84.5116 155.112C84.5116 155.912 85.0556 156.312 86.1436 156.312C86.7676 156.312 87.3116 156.144 87.7756 155.808C88.2556 155.472 88.4956 155.056 88.4956 154.56V153.48ZM104.167 146.016C104.535 146.016 104.863 146.064 105.151 146.16C105.439 146.24 105.583 146.288 105.583 146.304V150.312H104.047C103.055 150.312 102.335 150.568 101.887 151.08C101.455 151.592 101.239 152.352 101.239 153.36V159H96.4634V146.328H100.375L100.687 148.248C100.975 147.512 101.431 146.96 102.055 146.592C102.679 146.208 103.383 146.016 104.167 146.016ZM117.059 146.04C118.531 146.04 119.635 146.448 120.371 147.264C121.107 148.08 121.475 149.256 121.475 150.792V159H116.699V151.368C116.699 150.824 116.555 150.392 116.267 150.072C115.995 149.736 115.603 149.568 115.091 149.568C114.499 149.568 114.019 149.76 113.651 150.144C113.283 150.528 113.099 151 113.099 151.56V159H108.323V146.328H112.235L112.547 148.248C113.043 147.576 113.691 147.04 114.491 146.64C115.307 146.24 116.163 146.04 117.059 146.04ZM124.499 144.84V141.6H129.275V144.84H124.499ZM124.499 159V146.328H129.275V159H124.499ZM141.059 146.04C142.531 146.04 143.635 146.448 144.371 147.264C145.107 148.08 145.475 149.256 145.475 150.792V159H140.699V151.368C140.699 150.824 140.555 150.392 140.267 150.072C139.995 149.736 139.603 149.568 139.091 149.568C138.499 149.568 138.019 149.76 137.651 150.144C137.283 150.528 137.099 151 137.099 151.56V159H132.323V146.328H136.235L136.547 148.248C137.043 147.576 137.691 147.04 138.491 146.64C139.307 146.24 140.163 146.04 141.059 146.04ZM162.587 143.952C162.587 144.928 162.339 145.68 161.843 146.208C161.363 146.736 160.635 147.128 159.659 147.384C160.123 147.736 160.483 148.152 160.739 148.632C161.011 149.096 161.147 149.592 161.147 150.12C161.147 151.464 160.635 152.48 159.611 153.168C158.603 153.856 157.339 154.2 155.819 154.2H153.995C152.987 154.2 152.483 154.432 152.483 154.896C152.483 155.12 152.595 155.304 152.819 155.448C153.043 155.576 153.435 155.64 153.995 155.64H158.315C159.723 155.64 160.787 156.008 161.507 156.744C162.227 157.48 162.587 158.464 162.587 159.696C162.587 160.608 162.347 161.392 161.867 162.048C161.387 162.704 160.739 163.2 159.923 163.536C159.107 163.872 158.219 164.04 157.259 164.04H150.203C149.627 164.04 149.091 163.904 148.595 163.632C148.115 163.36 147.731 162.984 147.443 162.504C147.155 162.04 147.011 161.52 147.011 160.944C147.011 160.32 147.203 159.752 147.587 159.24C147.971 158.744 148.451 158.368 149.027 158.112C148.643 157.84 148.339 157.512 148.115 157.128C147.891 156.744 147.779 156.328 147.779 155.88C147.779 155.256 148.011 154.696 148.475 154.2C148.939 153.688 149.515 153.344 150.203 153.168C149.579 152.768 149.083 152.312 148.715 151.8C148.347 151.272 148.163 150.72 148.163 150.144C148.163 148.672 148.755 147.624 149.939 147C151.139 146.36 152.723 146.04 154.691 146.04C155.555 146.04 156.251 146.088 156.779 146.184C157.563 145.688 158.067 145.24 158.291 144.84C158.531 144.424 158.651 144.128 158.651 143.952H162.587ZM154.643 148.536C154.115 148.536 153.683 148.672 153.347 148.944C153.011 149.216 152.843 149.608 152.843 150.12C152.843 150.648 152.995 151.048 153.299 151.32C153.619 151.576 154.067 151.704 154.643 151.704C155.219 151.704 155.667 151.576 155.987 151.32C156.323 151.048 156.491 150.648 156.491 150.12C156.491 149.592 156.323 149.2 155.987 148.944C155.667 148.672 155.219 148.536 154.643 148.536ZM152.795 159C152.427 159 152.123 159.096 151.883 159.288C151.659 159.496 151.547 159.784 151.547 160.152C151.547 160.52 151.667 160.816 151.907 161.04C152.147 161.264 152.443 161.376 152.795 161.376H156.539C156.891 161.376 157.187 161.264 157.427 161.04C157.683 160.832 157.811 160.544 157.811 160.176C157.811 159.808 157.691 159.52 157.451 159.312C157.211 159.104 156.907 159 156.539 159H152.795ZM178.883 146.04C181.203 146.04 182.971 146.584 184.187 147.672C185.419 148.76 186.035 150.424 186.035 152.664V153.48H176.531C176.531 154.392 176.731 155.08 177.131 155.544C177.547 156.008 178.195 156.24 179.075 156.24C179.875 156.24 180.459 156.072 180.827 155.736C181.211 155.4 181.403 154.952 181.403 154.392H186.035C186.035 155.928 185.451 157.128 184.283 157.992C183.115 158.856 181.411 159.288 179.171 159.288C176.819 159.288 174.995 158.744 173.699 157.656C172.403 156.552 171.755 154.888 171.755 152.664C171.755 150.488 172.387 148.84 173.651 147.72C174.915 146.6 176.659 146.04 178.883 146.04ZM179.075 149.088C177.571 149.088 176.731 149.8 176.555 151.224H181.211C181.211 150.568 181.019 150.048 180.635 149.664C180.267 149.28 179.747 149.088 179.075 149.088ZM193.114 146.04C194.874 146.04 196.218 146.736 197.146 148.128L197.554 146.328H201.442V163.728H196.666V157.848C195.77 158.808 194.586 159.288 193.114 159.288C191.402 159.288 190.082 158.736 189.154 157.632C188.226 156.512 187.762 154.864 187.762 152.688C187.762 150.496 188.226 148.84 189.154 147.72C190.082 146.6 191.402 146.04 193.114 146.04ZM194.602 149.568C193.226 149.568 192.538 150.384 192.538 152.016V153.288C192.538 154.936 193.226 155.76 194.602 155.76C195.306 155.76 195.834 155.512 196.186 155.016C196.538 154.504 196.714 153.848 196.714 153.048V152.256C196.714 151.456 196.538 150.808 196.186 150.312C195.834 149.816 195.306 149.568 194.602 149.568ZM213.538 159L213.226 157.08C212.73 157.768 212.074 158.312 211.258 158.712C210.458 159.096 209.61 159.288 208.714 159.288C207.242 159.288 206.138 158.88 205.402 158.064C204.666 157.248 204.298 156.072 204.298 154.536V146.328H209.074V153.96C209.074 154.504 209.21 154.944 209.482 155.28C209.77 155.6 210.17 155.76 210.682 155.76C211.274 155.76 211.754 155.568 212.122 155.184C212.49 154.8 212.674 154.328 212.674 153.768V146.328H217.45V159H213.538ZM220.522 144.84V141.6H225.298V144.84H220.522ZM220.522 159V146.328H225.298V159H220.522ZM236.698 146.04C238.41 146.04 239.73 146.6 240.658 147.72C241.586 148.84 242.05 150.496 242.05 152.688C242.05 154.864 241.586 156.512 240.658 157.632C239.73 158.736 238.41 159.288 236.698 159.288C235.226 159.288 234.042 158.808 233.146 157.848V163.728H228.37V146.328H232.258L232.666 148.128C233.594 146.736 234.938 146.04 236.698 146.04ZM235.21 149.568C234.506 149.568 233.978 149.816 233.626 150.312C233.274 150.808 233.098 151.456 233.098 152.256V153.048C233.098 153.848 233.274 154.504 233.626 155.016C233.978 155.512 234.506 155.76 235.21 155.76C236.586 155.76 237.274 154.936 237.274 153.288V152.016C237.274 150.384 236.586 149.568 235.21 149.568ZM261.178 146.04C262.618 146.04 263.698 146.456 264.418 147.288C265.138 148.104 265.498 149.272 265.498 150.792V159H260.722V151.368C260.722 150.824 260.586 150.392 260.314 150.072C260.058 149.736 259.69 149.568 259.21 149.568C258.65 149.568 258.194 149.76 257.842 150.144C257.49 150.528 257.314 151 257.314 151.56V159H252.538V151.368C252.538 150.824 252.402 150.392 252.13 150.072C251.874 149.736 251.506 149.568 251.026 149.568C250.466 149.568 250.01 149.76 249.658 150.144C249.306 150.528 249.13 151 249.13 151.56V159H244.354V146.328H248.266L248.578 148.224C249.058 147.552 249.69 147.024 250.474 146.64C251.274 146.24 252.114 146.04 252.994 146.04C254.898 146.04 256.178 146.768 256.834 148.224C257.33 147.552 257.962 147.024 258.73 146.64C259.514 146.24 260.33 146.04 261.178 146.04ZM274.906 146.04C277.226 146.04 278.994 146.584 280.21 147.672C281.442 148.76 282.058 150.424 282.058 152.664V153.48H272.554C272.554 154.392 272.754 155.08 273.154 155.544C273.57 156.008 274.218 156.24 275.098 156.24C275.898 156.24 276.482 156.072 276.85 155.736C277.234 155.4 277.426 154.952 277.426 154.392H282.058C282.058 155.928 281.474 157.128 280.306 157.992C279.138 158.856 277.434 159.288 275.194 159.288C272.842 159.288 271.018 158.744 269.722 157.656C268.426 156.552 267.778 154.888 267.778 152.664C267.778 150.488 268.41 148.84 269.674 147.72C270.938 146.6 272.682 146.04 274.906 146.04ZM275.098 149.088C273.594 149.088 272.754 149.8 272.578 151.224H277.234C277.234 150.568 277.042 150.048 276.658 149.664C276.29 149.28 275.77 149.088 275.098 149.088ZM293.098 146.04C294.57 146.04 295.674 146.448 296.41 147.264C297.146 148.08 297.514 149.256 297.514 150.792V159H292.738V151.368C292.738 150.824 292.594 150.392 292.306 150.072C292.034 149.736 291.642 149.568 291.13 149.568C290.538 149.568 290.058 149.76 289.69 150.144C289.322 150.528 289.138 151 289.138 151.56V159H284.362V146.328H288.274L288.586 148.248C289.082 147.576 289.73 147.04 290.53 146.64C291.346 146.24 292.202 146.04 293.098 146.04ZM308.818 146.328V149.568H306.13V154.392C306.13 154.968 306.226 155.392 306.418 155.664C306.61 155.92 306.962 156.048 307.474 156.048H308.818V158.856C308.434 158.984 307.938 159.088 307.33 159.168C306.722 159.248 306.194 159.288 305.746 159.288C304.338 159.288 303.25 159.032 302.482 158.52C301.73 158.008 301.354 157.136 301.354 155.904V149.568H299.578V146.328H301.546L302.578 142.488H306.13V146.328H308.818Z" fill="#808080"/>
<defs>
<linearGradient id="paint0_linear_3_91" x1="156.356" y1="57.1048" x2="192.289" y2="111.133" gradientUnits="userSpaceOnUse">
<stop stop-color="#DB94E6"/>
<stop offset="1" stop-color="#7176F6"/>
</linearGradient>
</defs>
</svg>
