<svg width="800" height="1024" viewBox="0 0 800 1024" fill="none" xmlns="http://www.w3.org/2000/svg">
<g clip-path="url(#clip0_1_28)">
<rect width="800" height="1024" fill="url(#paint0_linear_1_28)"/>
<path d="M168.32 320.8C174.656 320.8 180.352 321.76 185.408 323.68C190.464 325.6 194.464 328.448 197.408 332.224C200.416 335.936 201.92 340.48 201.92 345.856H181.664C181.664 343.104 180.448 340.896 178.016 339.232C175.584 337.504 172.64 336.64 169.184 336.64C164.192 336.64 160.416 337.984 157.856 340.672C155.296 343.296 154.016 347.04 154.016 351.904V358.048C154.016 362.912 155.296 366.688 157.856 369.376C160.416 372 164.192 373.312 169.184 373.312C172.64 373.312 175.584 372.512 178.016 370.912C180.448 369.248 181.664 367.136 181.664 364.576H166.688V351.136H201.92V388H190.976L188.864 381.472C182.848 386.592 174.976 389.152 165.248 389.152C154.304 389.152 146.08 386.304 140.576 380.608C135.072 374.848 132.32 366.304 132.32 354.976C132.32 343.776 135.424 335.296 141.632 329.536C147.904 323.712 156.8 320.8 168.32 320.8ZM214.401 388V318.4H233.505V388H214.401ZM270.754 336.16C278.498 336.16 284.802 337.472 289.666 340.096C294.53 342.656 296.962 346.848 296.962 352.672V372.448C296.962 373.536 297.218 374.432 297.73 375.136C298.242 375.84 299.01 376.192 300.034 376.192H303.49V387.232C303.298 387.36 302.786 387.584 301.954 387.904C301.186 388.16 300.066 388.416 298.594 388.672C297.122 388.992 295.426 389.152 293.506 389.152C289.794 389.152 286.722 388.608 284.29 387.52C281.922 386.368 280.29 384.8 279.394 382.816C276.962 384.736 274.242 386.272 271.234 387.424C268.226 388.576 264.706 389.152 260.674 389.152C248.77 389.152 242.818 384.416 242.818 374.944C242.818 370.016 244.13 366.272 246.754 363.712C249.442 361.088 253.282 359.296 258.274 358.336C263.266 357.376 269.794 356.896 277.858 356.896V354.4C277.858 352.416 277.154 350.912 275.746 349.888C274.402 348.864 272.642 348.352 270.466 348.352C268.482 348.352 266.753 348.704 265.281 349.408C263.874 350.112 263.17 351.232 263.17 352.768V353.152H244.354C244.29 352.832 244.258 352.384 244.258 351.808C244.258 347.008 246.53 343.2 251.074 340.384C255.682 337.568 262.242 336.16 270.754 336.16ZM277.858 365.92C272.418 365.92 268.386 366.528 265.762 367.744C263.202 368.896 261.922 370.464 261.922 372.448C261.922 375.648 264.098 377.248 268.45 377.248C270.946 377.248 273.122 376.576 274.978 375.232C276.898 373.888 277.858 372.224 277.858 370.24V365.92ZM346.593 388L344.961 380.8C341.249 386.368 335.873 389.152 328.833 389.152C321.985 389.152 316.705 386.912 312.993 382.432C309.281 377.952 307.425 371.328 307.425 362.56C307.425 353.856 309.281 347.296 312.993 342.88C316.705 338.4 321.985 336.16 328.833 336.16C334.657 336.16 339.393 338.112 343.041 342.016V318.4H362.145V388H346.593ZM334.785 350.272C329.281 350.272 326.529 353.568 326.529 360.16V365.248C326.529 371.776 329.281 375.04 334.785 375.04C337.601 375.04 339.713 374.048 341.121 372.064C342.529 370.08 343.233 367.488 343.233 364.288V361.12C343.233 357.92 342.529 355.328 341.121 353.344C339.713 351.296 337.601 350.272 334.785 350.272ZM167.552 441.312V454.272H156.8V473.568C156.8 475.872 157.184 477.568 157.952 478.656C158.72 479.68 160.128 480.192 162.176 480.192H167.552V491.424C166.016 491.936 164.032 492.352 161.6 492.672C159.168 492.992 157.056 493.152 155.264 493.152C149.632 493.152 145.28 492.128 142.208 490.08C139.2 488.032 137.696 484.544 137.696 479.616V454.272H130.592V441.312H138.464L142.592 425.952H156.8V441.312H167.552ZM202.624 440.16C211.52 440.16 218.496 442.432 223.552 446.976C228.672 451.456 231.232 458.016 231.232 466.656C231.232 475.296 228.672 481.888 223.552 486.432C218.496 490.912 211.52 493.152 202.624 493.152C193.728 493.152 186.752 490.912 181.696 486.432C176.64 481.952 174.112 475.36 174.112 466.656C174.112 457.952 176.64 451.36 181.696 446.88C186.752 442.4 193.728 440.16 202.624 440.16ZM202.624 453.12C196.352 453.12 193.216 456.736 193.216 463.968V469.44C193.216 476.608 196.352 480.192 202.624 480.192C208.96 480.192 212.128 476.608 212.128 469.44V463.968C212.128 456.736 208.96 453.12 202.624 453.12ZM296.512 440.16C303.296 440.16 309.024 441.504 313.696 444.192C318.432 446.816 320.8 450.912 320.8 456.48H303.04C303.04 454.624 302.208 453.312 300.544 452.544C299.392 451.904 297.952 451.584 296.224 451.584C291.616 451.584 289.312 452.672 289.312 454.848C289.312 456.064 290.112 456.928 291.712 457.44C293.312 457.952 295.936 458.496 299.584 459.072C304.064 459.712 307.808 460.48 310.816 461.376C313.824 462.208 316.448 463.744 318.688 465.984C320.928 468.16 322.048 471.232 322.048 475.2C322.048 481.664 319.616 486.272 314.752 489.024C309.952 491.776 303.648 493.152 295.84 493.152C291.36 493.152 287.136 492.544 283.168 491.328C279.2 490.048 275.968 488.096 273.472 485.472C270.976 482.848 269.728 479.52 269.728 475.488H287.488V475.872C287.552 478.048 288.448 479.584 290.176 480.48C291.968 481.312 293.856 481.728 295.84 481.728C301.152 481.728 303.808 480.48 303.808 477.984C303.808 476.704 302.976 475.776 301.312 475.2C299.648 474.624 296.928 474.016 293.152 473.376C288.608 472.608 284.864 471.776 281.92 470.88C279.04 469.984 276.512 468.48 274.336 466.368C272.16 464.192 271.072 461.184 271.072 457.344C271.072 451.136 273.408 446.72 278.08 444.096C282.816 441.472 288.96 440.16 296.512 440.16ZM357.312 440.16C366.592 440.16 373.664 442.336 378.528 446.688C383.456 451.04 385.92 457.696 385.92 466.656V469.92H347.904C347.904 473.568 348.704 476.32 350.304 478.176C351.968 480.032 354.56 480.96 358.08 480.96C361.28 480.96 363.616 480.288 365.088 478.944C366.624 477.6 367.392 475.808 367.392 473.568H385.92C385.92 479.712 383.584 484.512 378.912 487.968C374.24 491.424 367.424 493.152 358.464 493.152C349.056 493.152 341.76 490.976 336.576 486.624C331.392 482.208 328.8 475.552 328.8 466.656C328.8 457.952 331.328 451.36 336.384 446.88C341.44 442.4 348.416 440.16 357.312 440.16ZM358.08 452.352C352.064 452.352 348.704 455.2 348 460.896H366.624C366.624 458.272 365.856 456.192 364.32 454.656C362.848 453.12 360.768 452.352 358.08 452.352ZM421.343 440.16C430.623 440.16 437.695 442.336 442.559 446.688C447.487 451.04 449.951 457.696 449.951 466.656V469.92H411.935C411.935 473.568 412.735 476.32 414.335 478.176C415.999 480.032 418.591 480.96 422.111 480.96C425.311 480.96 427.647 480.288 429.119 478.944C430.655 477.6 431.423 475.808 431.423 473.568H449.951C449.951 479.712 447.615 484.512 442.943 487.968C438.271 491.424 431.455 493.152 422.495 493.152C413.087 493.152 405.791 490.976 400.607 486.624C395.423 482.208 392.831 475.552 392.831 466.656C392.831 457.952 395.359 451.36 400.415 446.88C405.471 442.4 412.447 440.16 421.343 440.16ZM422.111 452.352C416.095 452.352 412.735 455.2 412.031 460.896H430.655C430.655 458.272 429.887 456.192 428.351 454.656C426.879 453.12 424.799 452.352 422.111 452.352ZM533.471 492H512.255V466.368L486.047 425.952H510.431L523.103 447.936H523.487L536.159 425.952H559.295L533.471 466.368V492ZM583.906 440.16C592.802 440.16 599.778 442.432 604.833 446.976C609.954 451.456 612.514 458.016 612.514 466.656C612.514 475.296 609.954 481.888 604.833 486.432C599.778 490.912 592.802 493.152 583.906 493.152C575.01 493.152 568.034 490.912 562.978 486.432C557.922 481.952 555.394 475.36 555.394 466.656C555.394 457.952 557.922 451.36 562.978 446.88C568.034 442.4 575.01 440.16 583.906 440.16ZM583.906 453.12C577.634 453.12 574.498 456.736 574.498 463.968V469.44C574.498 476.608 577.634 480.192 583.906 480.192C590.242 480.192 593.41 476.608 593.41 469.44V463.968C593.41 456.736 590.242 453.12 583.906 453.12ZM658.497 492L657.249 484.32C655.265 487.072 652.641 489.248 649.377 490.848C646.177 492.384 642.785 493.152 639.201 493.152C633.313 493.152 628.897 491.52 625.953 488.256C623.009 484.992 621.537 480.288 621.537 474.144V441.312H640.641V471.84C640.641 474.016 641.185 475.776 642.273 477.12C643.425 478.4 645.025 479.04 647.073 479.04C649.441 479.04 651.361 478.272 652.833 476.736C654.305 475.2 655.041 473.312 655.041 471.072V441.312H674.145V492H658.497Z" fill="white"/>
<path d="M135.44 542.24C140.253 542.24 142.66 544.533 142.66 549.12C142.66 553.707 140.253 556 135.44 556H129.48V542.24H135.44ZM133.9 552.7H135.36C137.213 552.7 138.14 551.707 138.14 549.72V548.52C138.14 546.533 137.213 545.54 135.36 545.54H133.9V552.7ZM150.226 545.2C152.08 545.2 153.533 545.673 154.586 546.62C155.653 547.553 156.186 548.92 156.186 550.72C156.186 552.52 155.653 553.893 154.586 554.84C153.533 555.773 152.08 556.24 150.226 556.24C148.373 556.24 146.92 555.773 145.866 554.84C144.813 553.907 144.286 552.533 144.286 550.72C144.286 548.907 144.813 547.533 145.866 546.6C146.92 545.667 148.373 545.2 150.226 545.2ZM150.226 547.9C148.92 547.9 148.266 548.653 148.266 550.16V551.3C148.266 552.793 148.92 553.54 150.226 553.54C151.546 553.54 152.206 552.793 152.206 551.3V550.16C152.206 548.653 151.546 547.9 150.226 547.9ZM165.386 545.2C166.613 545.2 167.533 545.54 168.146 546.22C168.76 546.9 169.066 547.88 169.066 549.16V556H165.086V549.64C165.086 549.187 164.966 548.827 164.726 548.56C164.5 548.28 164.173 548.14 163.746 548.14C163.253 548.14 162.853 548.3 162.546 548.62C162.24 548.94 162.086 549.333 162.086 549.8V556H158.106V545.44H161.366L161.626 547.04C162.04 546.48 162.58 546.033 163.246 545.7C163.926 545.367 164.64 545.2 165.386 545.2ZM172.774 549.38H170.874L172.294 545.74H170.874V542.24H174.594V545.54L172.774 549.38ZM183.72 545.44V548.14H181.48V552.16C181.48 552.64 181.56 552.993 181.72 553.22C181.88 553.433 182.174 553.54 182.6 553.54H183.72V555.88C183.4 555.987 182.987 556.073 182.48 556.14C181.974 556.207 181.534 556.24 181.16 556.24C179.987 556.24 179.08 556.027 178.44 555.6C177.814 555.173 177.5 554.447 177.5 553.42V548.14H176.02V545.44H177.66L178.52 542.24H181.48V545.44H183.72ZM196.207 546.54C196.634 546.113 197.134 545.787 197.707 545.56C198.281 545.32 198.881 545.2 199.507 545.2C200.734 545.2 201.654 545.54 202.267 546.22C202.881 546.9 203.187 547.88 203.187 549.16V556H199.207V549.64C199.207 549.187 199.087 548.827 198.847 548.56C198.621 548.28 198.294 548.14 197.867 548.14C197.374 548.14 196.974 548.3 196.667 548.62C196.361 548.94 196.207 549.333 196.207 549.8V556H192.227V541.5H196.207V546.54ZM210.787 545.2C212.401 545.2 213.714 545.473 214.727 546.02C215.741 546.553 216.247 547.427 216.247 548.64V552.76C216.247 552.987 216.301 553.173 216.407 553.32C216.514 553.467 216.674 553.54 216.887 553.54H217.607V555.84C217.567 555.867 217.461 555.913 217.287 555.98C217.127 556.033 216.894 556.087 216.587 556.14C216.281 556.207 215.927 556.24 215.527 556.24C214.754 556.24 214.114 556.127 213.607 555.9C213.114 555.66 212.774 555.333 212.587 554.92C212.081 555.32 211.514 555.64 210.887 555.88C210.261 556.12 209.527 556.24 208.687 556.24C206.207 556.24 204.967 555.253 204.967 553.28C204.967 552.253 205.241 551.473 205.787 550.94C206.347 550.393 207.147 550.02 208.187 549.82C209.227 549.62 210.587 549.52 212.267 549.52V549C212.267 548.587 212.121 548.273 211.827 548.06C211.547 547.847 211.181 547.74 210.727 547.74C210.314 547.74 209.954 547.813 209.647 547.96C209.354 548.107 209.207 548.34 209.207 548.66V548.74H205.287C205.274 548.673 205.267 548.58 205.267 548.46C205.267 547.46 205.741 546.667 206.687 546.08C207.647 545.493 209.014 545.2 210.787 545.2ZM212.267 551.4C211.134 551.4 210.294 551.527 209.747 551.78C209.214 552.02 208.947 552.347 208.947 552.76C208.947 553.427 209.401 553.76 210.307 553.76C210.827 553.76 211.281 553.62 211.667 553.34C212.067 553.06 212.267 552.713 212.267 552.3V551.4ZM221.375 556L217.375 545.44H221.655L223.595 552.02H223.735L225.675 545.44H229.595L225.555 556H221.375ZM235.734 545.2C237.668 545.2 239.141 545.653 240.154 546.56C241.181 547.467 241.694 548.853 241.694 550.72V551.4H233.774C233.774 552.16 233.941 552.733 234.274 553.12C234.621 553.507 235.161 553.7 235.894 553.7C236.561 553.7 237.048 553.56 237.354 553.28C237.674 553 237.834 552.627 237.834 552.16H241.694C241.694 553.44 241.208 554.44 240.234 555.16C239.261 555.88 237.841 556.24 235.974 556.24C234.014 556.24 232.494 555.787 231.414 554.88C230.334 553.96 229.794 552.573 229.794 550.72C229.794 548.907 230.321 547.533 231.374 546.6C232.428 545.667 233.881 545.2 235.734 545.2ZM235.894 547.74C234.641 547.74 233.941 548.333 233.794 549.52H237.674C237.674 548.973 237.514 548.54 237.194 548.22C236.888 547.9 236.454 547.74 235.894 547.74ZM255.494 545.2C257.108 545.2 258.421 545.473 259.434 546.02C260.448 546.553 260.954 547.427 260.954 548.64V552.76C260.954 552.987 261.008 553.173 261.114 553.32C261.221 553.467 261.381 553.54 261.594 553.54H262.314V555.84C262.274 555.867 262.168 555.913 261.994 555.98C261.834 556.033 261.601 556.087 261.294 556.14C260.988 556.207 260.634 556.24 260.234 556.24C259.461 556.24 258.821 556.127 258.314 555.9C257.821 555.66 257.481 555.333 257.294 554.92C256.788 555.32 256.221 555.64 255.594 555.88C254.968 556.12 254.234 556.24 253.394 556.24C250.914 556.24 249.674 555.253 249.674 553.28C249.674 552.253 249.948 551.473 250.494 550.94C251.054 550.393 251.854 550.02 252.894 549.82C253.934 549.62 255.294 549.52 256.974 549.52V549C256.974 548.587 256.828 548.273 256.534 548.06C256.254 547.847 255.888 547.74 255.434 547.74C255.021 547.74 254.661 547.813 254.354 547.96C254.061 548.107 253.914 548.34 253.914 548.66V548.74H249.994C249.981 548.673 249.974 548.58 249.974 548.46C249.974 547.46 250.448 546.667 251.394 546.08C252.354 545.493 253.721 545.2 255.494 545.2ZM256.974 551.4C255.841 551.4 255.001 551.527 254.454 551.78C253.921 552.02 253.654 552.347 253.654 552.76C253.654 553.427 254.108 553.76 255.014 553.76C255.534 553.76 255.988 553.62 256.374 553.34C256.774 553.06 256.974 552.713 256.974 552.3V551.4ZM269.074 545.2C270.807 545.2 272.207 545.573 273.274 546.32C274.354 547.053 274.894 548.18 274.894 549.7H271.034C271.034 548.5 270.381 547.9 269.074 547.9C267.767 547.9 267.114 548.653 267.114 550.16V551.3C267.114 552.793 267.794 553.54 269.154 553.54C270.514 553.54 271.194 552.927 271.194 551.7H274.894C274.894 553.233 274.354 554.373 273.274 555.12C272.207 555.867 270.807 556.24 269.074 556.24C267.221 556.24 265.767 555.773 264.714 554.84C263.661 553.907 263.134 552.533 263.134 550.72C263.134 548.907 263.661 547.533 264.714 546.6C265.767 545.667 267.221 545.2 269.074 545.2ZM282.414 545.2C284.147 545.2 285.547 545.573 286.614 546.32C287.694 547.053 288.234 548.18 288.234 549.7H284.374C284.374 548.5 283.721 547.9 282.414 547.9C281.107 547.9 280.454 548.653 280.454 550.16V551.3C280.454 552.793 281.134 553.54 282.494 553.54C283.854 553.54 284.534 552.927 284.534 551.7H288.234C288.234 553.233 287.694 554.373 286.614 555.12C285.547 555.867 284.147 556.24 282.414 556.24C280.561 556.24 279.107 555.773 278.054 554.84C277.001 553.907 276.474 552.533 276.474 550.72C276.474 548.907 277.001 547.533 278.054 546.6C279.107 545.667 280.561 545.2 282.414 545.2ZM295.754 545.2C297.607 545.2 299.06 545.673 300.114 546.62C301.18 547.553 301.714 548.92 301.714 550.72C301.714 552.52 301.18 553.893 300.114 554.84C299.06 555.773 297.607 556.24 295.754 556.24C293.9 556.24 292.447 555.773 291.394 554.84C290.34 553.907 289.814 552.533 289.814 550.72C289.814 548.907 290.34 547.533 291.394 546.6C292.447 545.667 293.9 545.2 295.754 545.2ZM295.754 547.9C294.447 547.9 293.794 548.653 293.794 550.16V551.3C293.794 552.793 294.447 553.54 295.754 553.54C297.074 553.54 297.734 552.793 297.734 551.3V550.16C297.734 548.653 297.074 547.9 295.754 547.9ZM311.294 556L311.034 554.4C310.62 554.973 310.074 555.427 309.394 555.76C308.727 556.08 308.02 556.24 307.274 556.24C306.047 556.24 305.127 555.9 304.514 555.22C303.9 554.54 303.594 553.56 303.594 552.28V545.44H307.574V551.8C307.574 552.253 307.687 552.62 307.914 552.9C308.154 553.167 308.487 553.3 308.914 553.3C309.407 553.3 309.807 553.14 310.114 552.82C310.42 552.5 310.574 552.107 310.574 551.64V545.44H314.554V556H311.294ZM324.253 545.2C325.48 545.2 326.4 545.54 327.013 546.22C327.627 546.9 327.933 547.88 327.933 549.16V556H323.953V549.64C323.953 549.187 323.833 548.827 323.593 548.56C323.367 548.28 323.04 548.14 322.613 548.14C322.12 548.14 321.72 548.3 321.413 548.62C321.107 548.94 320.953 549.333 320.953 549.8V556H316.973V545.44H320.233L320.493 547.04C320.907 546.48 321.447 546.033 322.113 545.7C322.793 545.367 323.507 545.2 324.253 545.2ZM337.353 545.44V548.14H335.113V552.16C335.113 552.64 335.193 552.993 335.353 553.22C335.513 553.433 335.807 553.54 336.233 553.54H337.353V555.88C337.033 555.987 336.62 556.073 336.113 556.14C335.607 556.207 335.167 556.24 334.793 556.24C333.62 556.24 332.713 556.027 332.073 555.6C331.447 555.173 331.133 554.447 331.133 553.42V548.14H329.653V545.44H331.293L332.153 542.24H335.113V545.44H337.353ZM350.86 542C351.873 542 352.767 542.167 353.54 542.5C354.313 542.833 354.913 543.313 355.34 543.94C355.767 544.553 355.98 545.267 355.98 546.08C355.98 546.6 355.867 547.067 355.64 547.48C355.413 547.88 355.147 548.22 354.84 548.5C354.533 548.78 354.147 549.087 353.68 549.42C353.293 549.713 353.007 549.947 352.82 550.12C352.647 550.293 352.56 550.473 352.56 550.66V551.08H349.14V550.08C349.14 549.76 349.24 549.473 349.44 549.22C349.64 548.953 349.953 548.62 350.38 548.22C350.82 547.833 351.153 547.487 351.38 547.18C351.62 546.873 351.74 546.533 351.74 546.16C351.74 545.773 351.62 545.447 351.38 545.18C351.14 544.9 350.82 544.76 350.42 544.76C349.553 544.76 349.12 545.32 349.12 546.44C349.12 546.68 349.127 546.86 349.14 546.98H345.46C345.447 546.887 345.433 546.78 345.42 546.66C345.407 546.54 345.4 546.393 345.4 546.22C345.4 545.367 345.633 544.627 346.1 544C346.567 543.36 347.213 542.867 348.04 542.52C348.88 542.173 349.82 542 350.86 542ZM348.9 556V552.3H352.86V556H348.9ZM371.587 542C373.627 542 375.24 542.513 376.427 543.54C377.614 544.553 378.207 546.007 378.207 547.9H373.987C373.987 547.1 373.774 546.467 373.347 546C372.934 545.533 372.34 545.3 371.567 545.3C370.674 545.3 370.014 545.58 369.587 546.14C369.174 546.7 368.967 547.48 368.967 548.48V549.76C368.967 550.747 369.174 551.527 369.587 552.1C370.014 552.66 370.66 552.94 371.527 552.94C372.38 552.94 373.027 552.72 373.467 552.28C373.907 551.84 374.127 551.22 374.127 550.42H378.207C378.207 552.3 377.627 553.74 376.467 554.74C375.32 555.74 373.694 556.24 371.587 556.24C369.24 556.24 367.46 555.64 366.247 554.44C365.047 553.24 364.447 551.467 364.447 549.12C364.447 546.773 365.047 545 366.247 543.8C367.46 542.6 369.24 542 371.587 542ZM386.733 545.18C387.04 545.18 387.313 545.22 387.553 545.3C387.793 545.367 387.913 545.407 387.913 545.42V548.76H386.633C385.807 548.76 385.207 548.973 384.833 549.4C384.473 549.827 384.293 550.46 384.293 551.3V556H380.313V545.44H383.573L383.833 547.04C384.073 546.427 384.453 545.967 384.973 545.66C385.493 545.34 386.08 545.18 386.733 545.18ZM394.973 545.2C396.906 545.2 398.379 545.653 399.393 546.56C400.419 547.467 400.933 548.853 400.933 550.72V551.4H393.013C393.013 552.16 393.179 552.733 393.513 553.12C393.859 553.507 394.399 553.7 395.133 553.7C395.799 553.7 396.286 553.56 396.593 553.28C396.913 553 397.073 552.627 397.073 552.16H400.933C400.933 553.44 400.446 554.44 399.473 555.16C398.499 555.88 397.079 556.24 395.213 556.24C393.253 556.24 391.733 555.787 390.653 554.88C389.573 553.96 389.033 552.573 389.033 550.72C389.033 548.907 389.559 547.533 390.613 546.6C391.666 545.667 393.119 545.2 394.973 545.2ZM395.133 547.74C393.879 547.74 393.179 548.333 393.033 549.52H396.913C396.913 548.973 396.753 548.54 396.433 548.22C396.126 547.9 395.693 547.74 395.133 547.74ZM408.072 545.2C409.686 545.2 410.999 545.473 412.012 546.02C413.026 546.553 413.532 547.427 413.532 548.64V552.76C413.532 552.987 413.586 553.173 413.692 553.32C413.799 553.467 413.959 553.54 414.172 553.54H414.892V555.84C414.852 555.867 414.746 555.913 414.572 555.98C414.412 556.033 414.179 556.087 413.872 556.14C413.566 556.207 413.212 556.24 412.812 556.24C412.039 556.24 411.399 556.127 410.892 555.9C410.399 555.66 410.059 555.333 409.872 554.92C409.366 555.32 408.799 555.64 408.172 555.88C407.546 556.12 406.812 556.24 405.972 556.24C403.492 556.24 402.252 555.253 402.252 553.28C402.252 552.253 402.526 551.473 403.072 550.94C403.632 550.393 404.432 550.02 405.472 549.82C406.512 549.62 407.872 549.52 409.552 549.52V549C409.552 548.587 409.406 548.273 409.112 548.06C408.832 547.847 408.466 547.74 408.012 547.74C407.599 547.74 407.239 547.813 406.932 547.96C406.639 548.107 406.492 548.34 406.492 548.66V548.74H402.572C402.559 548.673 402.552 548.58 402.552 548.46C402.552 547.46 403.026 546.667 403.972 546.08C404.932 545.493 406.299 545.2 408.072 545.2ZM409.552 551.4C408.419 551.4 407.579 551.527 407.032 551.78C406.499 552.02 406.232 552.347 406.232 552.76C406.232 553.427 406.686 553.76 407.592 553.76C408.112 553.76 408.566 553.62 408.952 553.34C409.352 553.06 409.552 552.713 409.552 552.3V551.4ZM422.9 545.44V548.14H420.66V552.16C420.66 552.64 420.74 552.993 420.9 553.22C421.06 553.433 421.353 553.54 421.78 553.54H422.9V555.88C422.58 555.987 422.167 556.073 421.66 556.14C421.153 556.207 420.713 556.24 420.34 556.24C419.167 556.24 418.26 556.027 417.62 555.6C416.993 555.173 416.68 554.447 416.68 553.42V548.14H415.2V545.44H416.84L417.7 542.24H420.66V545.44H422.9ZM430.207 545.2C432.14 545.2 433.614 545.653 434.627 546.56C435.654 547.467 436.167 548.853 436.167 550.72V551.4H428.247C428.247 552.16 428.414 552.733 428.747 553.12C429.094 553.507 429.634 553.7 430.367 553.7C431.034 553.7 431.52 553.56 431.827 553.28C432.147 553 432.307 552.627 432.307 552.16H436.167C436.167 553.44 435.68 554.44 434.707 555.16C433.734 555.88 432.314 556.24 430.447 556.24C428.487 556.24 426.967 555.787 425.887 554.88C424.807 553.96 424.267 552.573 424.267 550.72C424.267 548.907 424.794 547.533 425.847 546.6C426.9 545.667 428.354 545.2 430.207 545.2ZM430.367 547.74C429.114 547.74 428.414 548.333 428.267 549.52H432.147C432.147 548.973 431.987 548.54 431.667 548.22C431.36 547.9 430.927 547.74 430.367 547.74ZM452.007 555.68C451.46 557.16 450.787 558.28 449.987 559.04C449.2 559.813 448.094 560.2 446.667 560.2C445.8 560.2 445.034 560.08 444.367 559.84V557.46H445.967C446.967 557.46 447.56 556.973 447.747 556L443.547 545.44H447.827L449.847 552.46H449.987L451.847 545.44H455.767L452.007 555.68ZM462.101 545.2C463.955 545.2 465.408 545.673 466.461 546.62C467.528 547.553 468.061 548.92 468.061 550.72C468.061 552.52 467.528 553.893 466.461 554.84C465.408 555.773 463.955 556.24 462.101 556.24C460.248 556.24 458.795 555.773 457.741 554.84C456.688 553.907 456.161 552.533 456.161 550.72C456.161 548.907 456.688 547.533 457.741 546.6C458.795 545.667 460.248 545.2 462.101 545.2ZM462.101 547.9C460.795 547.9 460.141 548.653 460.141 550.16V551.3C460.141 552.793 460.795 553.54 462.101 553.54C463.421 553.54 464.081 552.793 464.081 551.3V550.16C464.081 548.653 463.421 547.9 462.101 547.9ZM477.641 556L477.381 554.4C476.968 554.973 476.421 555.427 475.741 555.76C475.075 556.08 474.368 556.24 473.621 556.24C472.395 556.24 471.475 555.9 470.861 555.22C470.248 554.54 469.941 553.56 469.941 552.28V545.44H473.921V551.8C473.921 552.253 474.035 552.62 474.261 552.9C474.501 553.167 474.835 553.3 475.261 553.3C475.755 553.3 476.155 553.14 476.461 552.82C476.768 552.5 476.921 552.107 476.921 551.64V545.44H480.901V556H477.641ZM489.741 545.18C490.048 545.18 490.321 545.22 490.561 545.3C490.801 545.367 490.921 545.407 490.921 545.42V548.76H489.641C488.814 548.76 488.214 548.973 487.841 549.4C487.481 549.827 487.301 550.46 487.301 551.3V556H483.321V545.44H486.581L486.841 547.04C487.081 546.427 487.461 545.967 487.981 545.66C488.501 545.34 489.088 545.18 489.741 545.18ZM504.088 545.2C505.701 545.2 507.015 545.473 508.028 546.02C509.041 546.553 509.548 547.427 509.548 548.64V552.76C509.548 552.987 509.601 553.173 509.708 553.32C509.815 553.467 509.975 553.54 510.188 553.54H510.908V555.84C510.868 555.867 510.761 555.913 510.588 555.98C510.428 556.033 510.195 556.087 509.888 556.14C509.581 556.207 509.228 556.24 508.828 556.24C508.055 556.24 507.415 556.127 506.908 555.9C506.415 555.66 506.075 555.333 505.888 554.92C505.381 555.32 504.815 555.64 504.188 555.88C503.561 556.12 502.828 556.24 501.988 556.24C499.508 556.24 498.268 555.253 498.268 553.28C498.268 552.253 498.541 551.473 499.088 550.94C499.648 550.393 500.448 550.02 501.488 549.82C502.528 549.62 503.888 549.52 505.568 549.52V549C505.568 548.587 505.421 548.273 505.128 548.06C504.848 547.847 504.481 547.74 504.028 547.74C503.615 547.74 503.255 547.813 502.948 547.96C502.655 548.107 502.508 548.34 502.508 548.66V548.74H498.588C498.575 548.673 498.568 548.58 498.568 548.46C498.568 547.46 499.041 546.667 499.988 546.08C500.948 545.493 502.315 545.2 504.088 545.2ZM505.568 551.4C504.435 551.4 503.595 551.527 503.048 551.78C502.515 552.02 502.248 552.347 502.248 552.76C502.248 553.427 502.701 553.76 503.608 553.76C504.128 553.76 504.581 553.62 504.968 553.34C505.368 553.06 505.568 552.713 505.568 552.3V551.4ZM517.668 545.2C519.401 545.2 520.801 545.573 521.868 546.32C522.948 547.053 523.488 548.18 523.488 549.7H519.628C519.628 548.5 518.974 547.9 517.668 547.9C516.361 547.9 515.708 548.653 515.708 550.16V551.3C515.708 552.793 516.388 553.54 517.748 553.54C519.108 553.54 519.788 552.927 519.788 551.7H523.488C523.488 553.233 522.948 554.373 521.868 555.12C520.801 555.867 519.401 556.24 517.668 556.24C515.814 556.24 514.361 555.773 513.308 554.84C512.254 553.907 511.728 552.533 511.728 550.72C511.728 548.907 512.254 547.533 513.308 546.6C514.361 545.667 515.814 545.2 517.668 545.2ZM531.008 545.2C532.741 545.2 534.141 545.573 535.208 546.32C536.288 547.053 536.828 548.18 536.828 549.7H532.968C532.968 548.5 532.314 547.9 531.008 547.9C529.701 547.9 529.048 548.653 529.048 550.16V551.3C529.048 552.793 529.728 553.54 531.088 553.54C532.448 553.54 533.128 552.927 533.128 551.7H536.828C536.828 553.233 536.288 554.373 535.208 555.12C534.141 555.867 532.741 556.24 531.008 556.24C529.154 556.24 527.701 555.773 526.648 554.84C525.594 553.907 525.068 552.533 525.068 550.72C525.068 548.907 525.594 547.533 526.648 546.6C527.701 545.667 529.154 545.2 531.008 545.2ZM544.348 545.2C546.201 545.2 547.654 545.673 548.707 546.62C549.774 547.553 550.308 548.92 550.308 550.72C550.308 552.52 549.774 553.893 548.707 554.84C547.654 555.773 546.201 556.24 544.348 556.24C542.494 556.24 541.041 555.773 539.988 554.84C538.934 553.907 538.408 552.533 538.408 550.72C538.408 548.907 538.934 547.533 539.988 546.6C541.041 545.667 542.494 545.2 544.348 545.2ZM544.348 547.9C543.041 547.9 542.388 548.653 542.388 550.16V551.3C542.388 552.793 543.041 553.54 544.348 553.54C545.668 553.54 546.328 552.793 546.328 551.3V550.16C546.328 548.653 545.668 547.9 544.348 547.9ZM559.887 556L559.627 554.4C559.214 554.973 558.667 555.427 557.987 555.76C557.321 556.08 556.614 556.24 555.867 556.24C554.641 556.24 553.721 555.9 553.107 555.22C552.494 554.54 552.187 553.56 552.187 552.28V545.44H556.167V551.8C556.167 552.253 556.281 552.62 556.507 552.9C556.747 553.167 557.081 553.3 557.507 553.3C558.001 553.3 558.401 553.14 558.707 552.82C559.014 552.5 559.167 552.107 559.167 551.64V545.44H563.147V556H559.887ZM572.847 545.2C574.074 545.2 574.994 545.54 575.607 546.22C576.221 546.9 576.527 547.88 576.527 549.16V556H572.547V549.64C572.547 549.187 572.427 548.827 572.187 548.56C571.961 548.28 571.634 548.14 571.207 548.14C570.714 548.14 570.314 548.3 570.007 548.62C569.701 548.94 569.547 549.333 569.547 549.8V556H565.567V545.44H568.827L569.087 547.04C569.501 546.48 570.041 546.033 570.707 545.7C571.387 545.367 572.101 545.2 572.847 545.2ZM585.947 545.44V548.14H583.707V552.16C583.707 552.64 583.787 552.993 583.947 553.22C584.107 553.433 584.4 553.54 584.827 553.54H585.947V555.88C585.627 555.987 585.214 556.073 584.707 556.14C584.2 556.207 583.76 556.24 583.387 556.24C582.214 556.24 581.307 556.027 580.667 555.6C580.04 555.173 579.727 554.447 579.727 553.42V548.14H578.247V545.44H579.887L580.747 542.24H583.707V545.44H585.947ZM589.954 559.66H587.794L589.434 556H587.814V552.02H592.054V555.78L589.954 559.66ZM601.254 544.2V541.5H605.234V544.2H601.254ZM601.254 556V545.44H605.234V556H601.254ZM614.814 545.44V548.14H612.574V552.16C612.574 552.64 612.654 552.993 612.814 553.22C612.974 553.433 613.268 553.54 613.694 553.54H614.814V555.88C614.494 555.987 614.081 556.073 613.574 556.14C613.068 556.207 612.628 556.24 612.254 556.24C611.081 556.24 610.174 556.027 609.534 555.6C608.908 555.173 608.594 554.447 608.594 553.42V548.14H607.114V545.44H608.754L609.614 542.24H612.574V545.44H614.814ZM630.361 545.44V548.14H628.121V552.16C628.121 552.64 628.201 552.993 628.361 553.22C628.521 553.433 628.814 553.54 629.241 553.54H630.361V555.88C630.041 555.987 629.628 556.073 629.121 556.14C628.614 556.207 628.174 556.24 627.801 556.24C626.628 556.24 625.721 556.027 625.081 555.6C624.454 555.173 624.141 554.447 624.141 553.42V548.14H622.661V545.44H624.301L625.161 542.24H628.121V545.44H630.361ZM637.428 545.2C639.041 545.2 640.354 545.473 641.368 546.02C642.381 546.553 642.888 547.427 642.888 548.64V552.76C642.888 552.987 642.941 553.173 643.048 553.32C643.154 553.467 643.314 553.54 643.528 553.54H644.248V555.84C644.208 555.867 644.101 555.913 643.928 555.98C643.768 556.033 643.534 556.087 643.228 556.14C642.921 556.207 642.568 556.24 642.168 556.24C641.394 556.24 640.754 556.127 640.248 555.9C639.754 555.66 639.414 555.333 639.228 554.92C638.721 555.32 638.154 555.64 637.528 555.88C636.901 556.12 636.168 556.24 635.328 556.24C632.848 556.24 631.608 555.253 631.608 553.28C631.608 552.253 631.881 551.473 632.428 550.94C632.988 550.393 633.788 550.02 634.828 549.82C635.868 549.62 637.228 549.52 638.908 549.52V549C638.908 548.587 638.761 548.273 638.468 548.06C638.188 547.847 637.821 547.74 637.368 547.74C636.954 547.74 636.594 547.813 636.288 547.96C635.994 548.107 635.848 548.34 635.848 548.66V548.74H631.928C631.914 548.673 631.908 548.58 631.908 548.46C631.908 547.46 632.381 546.667 633.328 546.08C634.288 545.493 635.654 545.2 637.428 545.2ZM638.908 551.4C637.774 551.4 636.934 551.527 636.388 551.78C635.854 552.02 635.588 552.347 635.588 552.76C635.588 553.427 636.041 553.76 636.948 553.76C637.468 553.76 637.921 553.62 638.308 553.34C638.708 553.06 638.908 552.713 638.908 552.3V551.4ZM652.908 545.44H657.548L653.648 549.7L657.648 556H653.128L650.908 552.38L649.528 553.72V556H645.548V541.48H649.528V549.48L652.908 545.44ZM663.664 545.2C665.597 545.2 667.071 545.653 668.084 546.56C669.111 547.467 669.624 548.853 669.624 550.72V551.4H661.704C661.704 552.16 661.871 552.733 662.204 553.12C662.551 553.507 663.091 553.7 663.824 553.7C664.491 553.7 664.977 553.56 665.284 553.28C665.604 553 665.764 552.627 665.764 552.16H669.624C669.624 553.44 669.137 554.44 668.164 555.16C667.191 555.88 665.771 556.24 663.904 556.24C661.944 556.24 660.424 555.787 659.344 554.88C658.264 553.96 657.724 552.573 657.724 550.72C657.724 548.907 658.251 547.533 659.304 546.6C660.357 545.667 661.811 545.2 663.664 545.2ZM663.824 547.74C662.571 547.74 661.871 548.333 661.724 549.52H665.604C665.604 548.973 665.444 548.54 665.124 548.22C664.817 547.9 664.384 547.74 663.824 547.74ZM676.564 545.2C677.977 545.2 679.17 545.48 680.144 546.04C681.13 546.587 681.624 547.44 681.624 548.6H677.924C677.924 548.213 677.75 547.94 677.404 547.78C677.164 547.647 676.864 547.58 676.504 547.58C675.544 547.58 675.064 547.807 675.064 548.26C675.064 548.513 675.23 548.693 675.564 548.8C675.897 548.907 676.444 549.02 677.204 549.14C678.137 549.273 678.917 549.433 679.544 549.62C680.17 549.793 680.717 550.113 681.184 550.58C681.65 551.033 681.884 551.673 681.884 552.5C681.884 553.847 681.377 554.807 680.364 555.38C679.364 555.953 678.05 556.24 676.424 556.24C675.49 556.24 674.61 556.113 673.784 555.86C672.957 555.593 672.284 555.187 671.764 554.64C671.244 554.093 670.984 553.4 670.984 552.56H674.684V552.64C674.697 553.093 674.884 553.413 675.244 553.6C675.617 553.773 676.01 553.86 676.424 553.86C677.53 553.86 678.084 553.6 678.084 553.08C678.084 552.813 677.91 552.62 677.564 552.5C677.217 552.38 676.65 552.253 675.864 552.12C674.917 551.96 674.137 551.787 673.524 551.6C672.924 551.413 672.397 551.1 671.944 550.66C671.49 550.207 671.264 549.58 671.264 548.78C671.264 547.487 671.75 546.567 672.724 546.02C673.71 545.473 674.99 545.2 676.564 545.2ZM129.34 578V563.5H133.32V578H129.34ZM141.32 567.2C143.253 567.2 144.727 567.653 145.74 568.56C146.767 569.467 147.28 570.853 147.28 572.72V573.4H139.36C139.36 574.16 139.527 574.733 139.86 575.12C140.207 575.507 140.747 575.7 141.48 575.7C142.147 575.7 142.633 575.56 142.94 575.28C143.26 575 143.42 574.627 143.42 574.16H147.28C147.28 575.44 146.793 576.44 145.82 577.16C144.847 577.88 143.427 578.24 141.56 578.24C139.6 578.24 138.08 577.787 137 576.88C135.92 575.96 135.38 574.573 135.38 572.72C135.38 570.907 135.907 569.533 136.96 568.6C138.013 567.667 139.467 567.2 141.32 567.2ZM141.48 569.74C140.227 569.74 139.527 570.333 139.38 571.52H143.26C143.26 570.973 143.1 570.54 142.78 570.22C142.473 569.9 142.04 569.74 141.48 569.74ZM154.22 567.2C155.633 567.2 156.827 567.48 157.8 568.04C158.787 568.587 159.28 569.44 159.28 570.6H155.58C155.58 570.213 155.407 569.94 155.06 569.78C154.82 569.647 154.52 569.58 154.16 569.58C153.2 569.58 152.72 569.807 152.72 570.26C152.72 570.513 152.887 570.693 153.22 570.8C153.553 570.907 154.1 571.02 154.86 571.14C155.793 571.273 156.573 571.433 157.2 571.62C157.827 571.793 158.373 572.113 158.84 572.58C159.307 573.033 159.54 573.673 159.54 574.5C159.54 575.847 159.033 576.807 158.02 577.38C157.02 577.953 155.707 578.24 154.08 578.24C153.147 578.24 152.267 578.113 151.44 577.86C150.613 577.593 149.94 577.187 149.42 576.64C148.9 576.093 148.64 575.4 148.64 574.56H152.34V574.64C152.353 575.093 152.54 575.413 152.9 575.6C153.273 575.773 153.667 575.86 154.08 575.86C155.187 575.86 155.74 575.6 155.74 575.08C155.74 574.813 155.567 574.62 155.22 574.5C154.873 574.38 154.307 574.253 153.52 574.12C152.573 573.96 151.793 573.787 151.18 573.6C150.58 573.413 150.053 573.1 149.6 572.66C149.147 572.207 148.92 571.58 148.92 570.78C148.92 569.487 149.407 568.567 150.38 568.02C151.367 567.473 152.647 567.2 154.22 567.2ZM166.447 567.2C167.86 567.2 169.053 567.48 170.027 568.04C171.013 568.587 171.507 569.44 171.507 570.6H167.807C167.807 570.213 167.633 569.94 167.287 569.78C167.047 569.647 166.747 569.58 166.387 569.58C165.427 569.58 164.947 569.807 164.947 570.26C164.947 570.513 165.113 570.693 165.447 570.8C165.78 570.907 166.327 571.02 167.087 571.14C168.02 571.273 168.8 571.433 169.427 571.62C170.053 571.793 170.6 572.113 171.067 572.58C171.533 573.033 171.767 573.673 171.767 574.5C171.767 575.847 171.26 576.807 170.247 577.38C169.247 577.953 167.933 578.24 166.307 578.24C165.373 578.24 164.493 578.113 163.667 577.86C162.84 577.593 162.167 577.187 161.647 576.64C161.127 576.093 160.867 575.4 160.867 574.56H164.567V574.64C164.58 575.093 164.767 575.413 165.127 575.6C165.5 575.773 165.893 575.86 166.307 575.86C167.413 575.86 167.967 575.6 167.967 575.08C167.967 574.813 167.793 574.62 167.447 574.5C167.1 574.38 166.533 574.253 165.747 574.12C164.8 573.96 164.02 573.787 163.407 573.6C162.807 573.413 162.28 573.1 161.827 572.66C161.373 572.207 161.147 571.58 161.147 570.78C161.147 569.487 161.633 568.567 162.607 568.02C163.593 567.473 164.873 567.2 166.447 567.2ZM187.353 567.44V570.14H185.113V574.16C185.113 574.64 185.193 574.993 185.353 575.22C185.513 575.433 185.807 575.54 186.233 575.54H187.353V577.88C187.033 577.987 186.62 578.073 186.113 578.14C185.607 578.207 185.167 578.24 184.793 578.24C183.62 578.24 182.713 578.027 182.073 577.6C181.447 577.173 181.133 576.447 181.133 575.42V570.14H179.653V567.44H181.293L182.153 564.24H185.113V567.44H187.353ZM193.18 568.54C193.607 568.113 194.107 567.787 194.68 567.56C195.253 567.32 195.853 567.2 196.48 567.2C197.707 567.2 198.627 567.54 199.24 568.22C199.853 568.9 200.16 569.88 200.16 571.16V578H196.18V571.64C196.18 571.187 196.06 570.827 195.82 570.56C195.593 570.28 195.267 570.14 194.84 570.14C194.347 570.14 193.947 570.3 193.64 570.62C193.333 570.94 193.18 571.333 193.18 571.8V578H189.2V563.5H193.18V568.54ZM208 567.2C209.933 567.2 211.407 567.653 212.42 568.56C213.447 569.467 213.96 570.853 213.96 572.72V573.4H206.04C206.04 574.16 206.207 574.733 206.54 575.12C206.887 575.507 207.427 575.7 208.16 575.7C208.827 575.7 209.313 575.56 209.62 575.28C209.94 575 210.1 574.627 210.1 574.16H213.96C213.96 575.44 213.473 576.44 212.5 577.16C211.527 577.88 210.107 578.24 208.24 578.24C206.28 578.24 204.76 577.787 203.68 576.88C202.6 575.96 202.06 574.573 202.06 572.72C202.06 570.907 202.587 569.533 203.64 568.6C204.693 567.667 206.147 567.2 208 567.2ZM208.16 569.74C206.907 569.74 206.207 570.333 206.06 571.52H209.94C209.94 570.973 209.78 570.54 209.46 570.22C209.153 569.9 208.72 569.74 208.16 569.74ZM223.16 567.2C224.386 567.2 225.306 567.54 225.92 568.22C226.533 568.9 226.84 569.88 226.84 571.16V578H222.86V571.64C222.86 571.187 222.74 570.827 222.5 570.56C222.273 570.28 221.946 570.14 221.52 570.14C221.026 570.14 220.626 570.3 220.32 570.62C220.013 570.94 219.86 571.333 219.86 571.8V578H215.88V567.44H219.14L219.4 569.04C219.813 568.48 220.353 568.033 221.02 567.7C221.7 567.367 222.413 567.2 223.16 567.2ZM241.1 567.2C242.713 567.2 244.026 567.473 245.04 568.02C246.053 568.553 246.56 569.427 246.56 570.64V574.76C246.56 574.987 246.613 575.173 246.72 575.32C246.826 575.467 246.986 575.54 247.2 575.54H247.92V577.84C247.88 577.867 247.773 577.913 247.6 577.98C247.44 578.033 247.206 578.087 246.9 578.14C246.593 578.207 246.24 578.24 245.84 578.24C245.066 578.24 244.426 578.127 243.92 577.9C243.426 577.66 243.086 577.333 242.9 576.92C242.393 577.32 241.826 577.64 241.2 577.88C240.573 578.12 239.84 578.24 239 578.24C236.52 578.24 235.28 577.253 235.28 575.28C235.28 574.253 235.553 573.473 236.1 572.94C236.66 572.393 237.46 572.02 238.5 571.82C239.54 571.62 240.9 571.52 242.58 571.52V571C242.58 570.587 242.433 570.273 242.14 570.06C241.86 569.847 241.493 569.74 241.04 569.74C240.626 569.74 240.266 569.813 239.96 569.96C239.666 570.107 239.52 570.34 239.52 570.66V570.74H235.6C235.586 570.673 235.58 570.58 235.58 570.46C235.58 569.46 236.053 568.667 237 568.08C237.96 567.493 239.326 567.2 241.1 567.2ZM242.58 573.4C241.446 573.4 240.606 573.527 240.06 573.78C239.526 574.02 239.26 574.347 239.26 574.76C239.26 575.427 239.713 575.76 240.62 575.76C241.14 575.76 241.593 575.62 241.98 575.34C242.38 575.06 242.58 574.713 242.58 574.3V573.4ZM269.9 567.2C271.1 567.2 272 567.547 272.6 568.24C273.2 568.92 273.5 569.893 273.5 571.16V578H269.52V571.64C269.52 571.187 269.406 570.827 269.18 570.56C268.966 570.28 268.66 570.14 268.26 570.14C267.793 570.14 267.413 570.3 267.12 570.62C266.826 570.94 266.68 571.333 266.68 571.8V578H262.7V571.64C262.7 571.187 262.586 570.827 262.36 570.56C262.146 570.28 261.84 570.14 261.44 570.14C260.973 570.14 260.593 570.3 260.3 570.62C260.006 570.94 259.86 571.333 259.86 571.8V578H255.88V567.44H259.14L259.4 569.02C259.8 568.46 260.326 568.02 260.98 567.7C261.646 567.367 262.346 567.2 263.08 567.2C264.666 567.2 265.733 567.807 266.28 569.02C266.693 568.46 267.22 568.02 267.86 567.7C268.513 567.367 269.193 567.2 269.9 567.2ZM276.02 566.2V563.5H280V566.2H276.02ZM276.02 578V567.44H280V578H276.02ZM289.82 567.2C291.047 567.2 291.967 567.54 292.58 568.22C293.193 568.9 293.5 569.88 293.5 571.16V578H289.52V571.64C289.52 571.187 289.4 570.827 289.16 570.56C288.933 570.28 288.607 570.14 288.18 570.14C287.687 570.14 287.287 570.3 286.98 570.62C286.673 570.94 286.52 571.333 286.52 571.8V578H282.54V567.44H285.8L286.06 569.04C286.473 568.48 287.013 568.033 287.68 567.7C288.36 567.367 289.073 567.2 289.82 567.2ZM303.54 578L303.28 576.4C302.866 576.973 302.32 577.427 301.64 577.76C300.973 578.08 300.266 578.24 299.52 578.24C298.293 578.24 297.373 577.9 296.76 577.22C296.146 576.54 295.84 575.56 295.84 574.28V567.44H299.82V573.8C299.82 574.253 299.933 574.62 300.16 574.9C300.4 575.167 300.733 575.3 301.16 575.3C301.653 575.3 302.053 575.14 302.36 574.82C302.666 574.5 302.82 574.107 302.82 573.64V567.44H306.8V578H303.54ZM316.26 567.44V570.14H314.02V574.16C314.02 574.64 314.1 574.993 314.26 575.22C314.42 575.433 314.713 575.54 315.14 575.54H316.26V577.88C315.94 577.987 315.526 578.073 315.02 578.14C314.513 578.207 314.073 578.24 313.7 578.24C312.526 578.24 311.62 578.027 310.98 577.6C310.353 577.173 310.04 576.447 310.04 575.42V570.14H308.56V567.44H310.2L311.06 564.24H314.02V567.44H316.26ZM323.566 567.2C325.5 567.2 326.973 567.653 327.986 568.56C329.013 569.467 329.526 570.853 329.526 572.72V573.4H321.606C321.606 574.16 321.773 574.733 322.106 575.12C322.453 575.507 322.993 575.7 323.726 575.7C324.393 575.7 324.88 575.56 325.186 575.28C325.506 575 325.666 574.627 325.666 574.16H329.526C329.526 575.44 329.04 576.44 328.066 577.16C327.093 577.88 325.673 578.24 323.806 578.24C321.846 578.24 320.326 577.787 319.246 576.88C318.166 575.96 317.626 574.573 317.626 572.72C317.626 570.907 318.153 569.533 319.206 568.6C320.26 567.667 321.713 567.2 323.566 567.2ZM323.726 569.74C322.473 569.74 321.773 570.333 321.626 571.52H325.506C325.506 570.973 325.346 570.54 325.026 570.22C324.72 569.9 324.286 569.74 323.726 569.74Z" fill="white"/>
<rect x="128" y="668" width="273" height="50" rx="25" fill="url(#paint1_linear_1_28)"/>
<g clip-path="url(#clip1_1_28)">
<path fill-rule="evenodd" clip-rule="evenodd" d="M166.732 690.006H152.317C152.317 691.505 152.317 694.503 152.308 696.002H160.661C160.341 697.501 159.206 699.601 157.602 700.657C157.602 700.657 157.599 700.666 157.596 700.665C155.464 702.073 152.651 702.392 150.562 701.972C147.287 701.322 144.696 698.947 143.644 695.93C143.65 695.926 143.654 695.884 143.659 695.881C143 694.01 143 691.505 143.659 690.006H143.657C144.506 687.25 147.175 684.736 150.455 684.048C153.092 683.489 156.068 684.095 158.256 686.142C158.547 685.858 162.285 682.209 162.565 681.912C155.088 675.14 143.115 677.522 138.635 686.267H138.634C138.634 686.267 138.635 686.267 138.626 686.284C136.41 690.579 136.502 695.64 138.641 699.73C138.635 699.734 138.631 699.737 138.626 699.741C140.565 703.504 144.094 706.39 148.346 707.489C152.862 708.673 158.61 707.864 162.461 704.381L162.465 704.386C165.728 701.447 167.758 696.442 166.732 690.006Z" fill="white"/>
</g>
<path d="M194.808 686.8C196.216 686.8 197.373 687.088 198.28 687.664C199.187 688.229 199.651 689.072 199.672 690.192V690.384H196.36V690.32C196.36 690 196.243 689.733 196.008 689.52C195.773 689.307 195.416 689.2 194.936 689.2C194.467 689.2 194.104 689.269 193.848 689.408C193.603 689.547 193.48 689.717 193.48 689.92C193.48 690.208 193.651 690.421 193.992 690.56C194.333 690.699 194.883 690.843 195.64 690.992C196.525 691.173 197.251 691.365 197.816 691.568C198.392 691.76 198.893 692.08 199.32 692.528C199.747 692.976 199.965 693.584 199.976 694.352C199.976 695.653 199.533 696.619 198.648 697.248C197.773 697.877 196.6 698.192 195.128 698.192C193.411 698.192 192.072 697.904 191.112 697.328C190.163 696.752 189.688 695.733 189.688 694.272H193.032C193.032 694.827 193.176 695.2 193.464 695.392C193.752 695.573 194.2 695.664 194.808 695.664C195.256 695.664 195.624 695.616 195.912 695.52C196.211 695.424 196.36 695.227 196.36 694.928C196.36 694.661 196.195 694.464 195.864 694.336C195.544 694.197 195.016 694.053 194.28 693.904C193.384 693.712 192.643 693.515 192.056 693.312C191.469 693.099 190.957 692.752 190.52 692.272C190.083 691.792 189.864 691.141 189.864 690.32C189.864 689.115 190.328 688.229 191.256 687.664C192.195 687.088 193.379 686.8 194.808 686.8ZM201.619 688.56V686.4H204.803V688.56H201.619ZM201.619 698V689.552H204.803V698H201.619ZM216.339 687.968C216.339 688.619 216.174 689.12 215.843 689.472C215.523 689.824 215.038 690.085 214.387 690.256C214.696 690.491 214.936 690.768 215.107 691.088C215.288 691.397 215.379 691.728 215.379 692.08C215.379 692.976 215.038 693.653 214.355 694.112C213.683 694.571 212.84 694.8 211.827 694.8H210.611C209.939 694.8 209.603 694.955 209.603 695.264C209.603 695.413 209.678 695.536 209.827 695.632C209.976 695.717 210.238 695.76 210.611 695.76H213.491C214.43 695.76 215.139 696.005 215.619 696.496C216.099 696.987 216.339 697.643 216.339 698.464C216.339 699.072 216.179 699.595 215.859 700.032C215.539 700.469 215.107 700.8 214.563 701.024C214.019 701.248 213.427 701.36 212.787 701.36H208.083C207.699 701.36 207.342 701.269 207.011 701.088C206.691 700.907 206.435 700.656 206.243 700.336C206.051 700.027 205.955 699.68 205.955 699.296C205.955 698.88 206.083 698.501 206.339 698.16C206.595 697.829 206.915 697.579 207.299 697.408C207.043 697.227 206.84 697.008 206.691 696.752C206.542 696.496 206.467 696.219 206.467 695.92C206.467 695.504 206.622 695.131 206.931 694.8C207.24 694.459 207.624 694.229 208.083 694.112C207.667 693.845 207.336 693.541 207.091 693.2C206.846 692.848 206.723 692.48 206.723 692.096C206.723 691.115 207.118 690.416 207.907 690C208.707 689.573 209.763 689.36 211.075 689.36C211.651 689.36 212.115 689.392 212.467 689.456C212.99 689.125 213.326 688.827 213.475 688.56C213.635 688.283 213.715 688.085 213.715 687.968H216.339ZM211.043 691.024C210.691 691.024 210.403 691.115 210.179 691.296C209.955 691.477 209.843 691.739 209.843 692.08C209.843 692.432 209.944 692.699 210.147 692.88C210.36 693.051 210.659 693.136 211.043 693.136C211.427 693.136 211.726 693.051 211.939 692.88C212.163 692.699 212.275 692.432 212.275 692.08C212.275 691.728 212.163 691.467 211.939 691.296C211.726 691.115 211.427 691.024 211.043 691.024ZM209.811 698C209.566 698 209.363 698.064 209.203 698.192C209.054 698.331 208.979 698.523 208.979 698.768C208.979 699.013 209.059 699.211 209.219 699.36C209.379 699.509 209.576 699.584 209.811 699.584H212.307C212.542 699.584 212.739 699.509 212.899 699.36C213.07 699.221 213.155 699.029 213.155 698.784C213.155 698.539 213.075 698.347 212.915 698.208C212.755 698.069 212.552 698 212.307 698H209.811ZM223.331 689.36C224.312 689.36 225.048 689.632 225.539 690.176C226.03 690.72 226.275 691.504 226.275 692.528V698H223.091V692.912C223.091 692.549 222.995 692.261 222.803 692.048C222.622 691.824 222.36 691.712 222.019 691.712C221.624 691.712 221.304 691.84 221.059 692.096C220.814 692.352 220.691 692.667 220.691 693.04V698H217.507V689.552H220.115L220.323 690.832C220.654 690.384 221.086 690.027 221.619 689.76C222.163 689.493 222.734 689.36 223.331 689.36ZM244.691 693.568C244.691 695.072 244.216 696.219 243.267 697.008C242.318 697.797 240.968 698.192 239.219 698.192C237.47 698.192 236.115 697.797 235.155 697.008C234.206 696.219 233.731 695.072 233.731 693.568V686.992H237.267V693.52C237.267 694.139 237.432 694.635 237.763 695.008C238.094 695.371 238.574 695.552 239.203 695.552C239.832 695.552 240.312 695.365 240.643 694.992C240.984 694.619 241.155 694.128 241.155 693.52V686.992H244.691V693.568ZM252.403 689.36C253.544 689.36 254.424 689.733 255.043 690.48C255.662 691.227 255.971 692.331 255.971 693.792C255.971 695.243 255.662 696.341 255.043 697.088C254.424 697.824 253.544 698.192 252.403 698.192C251.422 698.192 250.632 697.872 250.035 697.232V701.152H246.851V689.552H249.443L249.715 690.752C250.334 689.824 251.23 689.36 252.403 689.36ZM251.411 691.712C250.942 691.712 250.59 691.877 250.355 692.208C250.12 692.539 250.003 692.971 250.003 693.504V694.032C250.003 694.565 250.12 695.003 250.355 695.344C250.59 695.675 250.942 695.84 251.411 695.84C252.328 695.84 252.787 695.291 252.787 694.192V693.344C252.787 692.256 252.328 691.712 251.411 691.712ZM270.771 698L269.459 693.296H269.395L268.067 698H264.963L261.875 689.552H265.299L266.579 694.544H266.691L268.019 689.552H271.187L272.467 694.544H272.579L273.875 689.552H276.979L273.875 698H270.771ZM278.056 688.56V686.4H281.24V688.56H278.056ZM278.056 698V689.552H281.24V698H278.056ZM288.905 689.552V691.712H287.113V694.928C287.113 695.312 287.177 695.595 287.305 695.776C287.433 695.947 287.667 696.032 288.009 696.032H288.905V697.904C288.649 697.989 288.318 698.059 287.913 698.112C287.507 698.165 287.155 698.192 286.857 698.192C285.918 698.192 285.193 698.021 284.681 697.68C284.179 697.339 283.929 696.757 283.929 695.936V691.712H282.745V689.552H284.057L284.745 686.992H287.113V689.552H288.905ZM293.566 690.432C293.907 690.091 294.307 689.829 294.766 689.648C295.225 689.456 295.705 689.36 296.206 689.36C297.187 689.36 297.923 689.632 298.414 690.176C298.905 690.72 299.15 691.504 299.15 692.528V698H295.966V692.912C295.966 692.549 295.87 692.261 295.678 692.048C295.497 691.824 295.235 691.712 294.894 691.712C294.499 691.712 294.179 691.84 293.934 692.096C293.689 692.352 293.566 692.667 293.566 693.04V698H290.382V686.4H293.566V690.432ZM312.142 686.8C313.198 686.8 314.147 686.96 314.99 687.28C315.833 687.6 316.499 688.075 316.99 688.704C317.491 689.323 317.742 690.08 317.742 690.976H314.366C314.366 690.517 314.163 690.149 313.758 689.872C313.353 689.584 312.862 689.44 312.286 689.44C311.454 689.44 310.825 689.664 310.398 690.112C309.971 690.549 309.758 691.173 309.758 691.984V693.008C309.758 693.819 309.971 694.448 310.398 694.896C310.825 695.333 311.454 695.552 312.286 695.552C312.862 695.552 313.353 695.419 313.758 695.152C314.163 694.875 314.366 694.523 314.366 694.096H311.87V691.856H317.742V698H315.918L315.566 696.912C314.563 697.765 313.251 698.192 311.63 698.192C309.806 698.192 308.435 697.717 307.518 696.768C306.601 695.808 306.142 694.384 306.142 692.496C306.142 690.629 306.659 689.216 307.694 688.256C308.739 687.285 310.222 686.8 312.142 686.8ZM324.078 689.36C325.561 689.36 326.723 689.739 327.566 690.496C328.419 691.243 328.846 692.336 328.846 693.776C328.846 695.216 328.419 696.315 327.566 697.072C326.723 697.819 325.561 698.192 324.078 698.192C322.595 698.192 321.433 697.819 320.59 697.072C319.747 696.325 319.326 695.227 319.326 693.776C319.326 692.325 319.747 691.227 320.59 690.48C321.433 689.733 322.595 689.36 324.078 689.36ZM324.078 691.52C323.033 691.52 322.51 692.123 322.51 693.328V694.24C322.51 695.435 323.033 696.032 324.078 696.032C325.134 696.032 325.662 695.435 325.662 694.24V693.328C325.662 692.123 325.134 691.52 324.078 691.52ZM334.75 689.36C336.233 689.36 337.395 689.739 338.238 690.496C339.091 691.243 339.518 692.336 339.518 693.776C339.518 695.216 339.091 696.315 338.238 697.072C337.395 697.819 336.233 698.192 334.75 698.192C333.267 698.192 332.105 697.819 331.262 697.072C330.419 696.325 329.998 695.227 329.998 693.776C329.998 692.325 330.419 691.227 331.262 690.48C332.105 689.733 333.267 689.36 334.75 689.36ZM334.75 691.52C333.705 691.52 333.182 692.123 333.182 693.328V694.24C333.182 695.435 333.705 696.032 334.75 696.032C335.806 696.032 336.334 695.435 336.334 694.24V693.328C336.334 692.123 335.806 691.52 334.75 691.52ZM350.558 687.968C350.558 688.619 350.392 689.12 350.062 689.472C349.742 689.824 349.256 690.085 348.606 690.256C348.915 690.491 349.155 690.768 349.326 691.088C349.507 691.397 349.598 691.728 349.598 692.08C349.598 692.976 349.256 693.653 348.574 694.112C347.902 694.571 347.059 694.8 346.046 694.8H344.83C344.158 694.8 343.822 694.955 343.822 695.264C343.822 695.413 343.896 695.536 344.046 695.632C344.195 695.717 344.456 695.76 344.83 695.76H347.71C348.648 695.76 349.358 696.005 349.838 696.496C350.318 696.987 350.558 697.643 350.558 698.464C350.558 699.072 350.398 699.595 350.078 700.032C349.758 700.469 349.326 700.8 348.782 701.024C348.238 701.248 347.646 701.36 347.006 701.36H342.302C341.918 701.36 341.56 701.269 341.23 701.088C340.91 700.907 340.654 700.656 340.462 700.336C340.27 700.027 340.174 699.68 340.174 699.296C340.174 698.88 340.302 698.501 340.558 698.16C340.814 697.829 341.134 697.579 341.518 697.408C341.262 697.227 341.059 697.008 340.91 696.752C340.76 696.496 340.686 696.219 340.686 695.92C340.686 695.504 340.84 695.131 341.15 694.8C341.459 694.459 341.843 694.229 342.302 694.112C341.886 693.845 341.555 693.541 341.31 693.2C341.064 692.848 340.942 692.48 340.942 692.096C340.942 691.115 341.336 690.416 342.126 690C342.926 689.573 343.982 689.36 345.294 689.36C345.87 689.36 346.334 689.392 346.686 689.456C347.208 689.125 347.544 688.827 347.694 688.56C347.854 688.283 347.934 688.085 347.934 687.968H350.558ZM345.262 691.024C344.91 691.024 344.622 691.115 344.398 691.296C344.174 691.477 344.062 691.739 344.062 692.08C344.062 692.432 344.163 692.699 344.366 692.88C344.579 693.051 344.878 693.136 345.262 693.136C345.646 693.136 345.944 693.051 346.158 692.88C346.382 692.699 346.494 692.432 346.494 692.08C346.494 691.728 346.382 691.467 346.158 691.296C345.944 691.115 345.646 691.024 345.262 691.024ZM344.03 698C343.784 698 343.582 698.064 343.422 698.192C343.272 698.331 343.198 698.523 343.198 698.768C343.198 699.013 343.278 699.211 343.438 699.36C343.598 699.509 343.795 699.584 344.03 699.584H346.526C346.76 699.584 346.958 699.509 347.118 699.36C347.288 699.221 347.374 699.029 347.374 698.784C347.374 698.539 347.294 698.347 347.134 698.208C346.974 698.069 346.771 698 346.526 698H344.03ZM351.994 698V686.4H355.178V698H351.994ZM361.578 689.36C363.125 689.36 364.303 689.723 365.114 690.448C365.935 691.173 366.346 692.283 366.346 693.776V694.32H360.01C360.01 694.928 360.143 695.387 360.41 695.696C360.687 696.005 361.119 696.16 361.706 696.16C362.239 696.16 362.629 696.048 362.874 695.824C363.13 695.6 363.258 695.301 363.258 694.928H366.346C366.346 695.952 365.957 696.752 365.178 697.328C364.399 697.904 363.263 698.192 361.77 698.192C360.202 698.192 358.986 697.829 358.122 697.104C357.258 696.368 356.826 695.259 356.826 693.776C356.826 692.325 357.247 691.227 358.09 690.48C358.933 689.733 360.095 689.36 361.578 689.36ZM361.706 691.392C360.703 691.392 360.143 691.867 360.026 692.816H363.13C363.13 692.379 363.002 692.032 362.746 691.776C362.501 691.52 362.154 691.392 361.706 691.392Z" fill="white"/>
<path d="M89.1392 966.057C-28.5134 1013.17 -52 1108.35 -52 1108.35L733.602 1259.45L833.617 739.42C833.617 739.42 795.044 717.237 751.671 723.66C633.395 741.175 536.2 945.801 355.148 977.845C241.73 997.918 169.794 933.759 89.1392 966.057Z" fill="url(#paint2_linear_1_28)"/>
<path d="M112.724 857.608C6.0869 926.093 1 1024 1 1024H801V494.444C801 494.444 758.931 479.945 717.552 494.444C604.712 533.982 547.914 753.283 376.172 818.944C268.586 860.077 185.828 810.659 112.724 857.608Z" fill="url(#paint3_linear_1_28)"/>
<path d="M544.193 34.2379C634.452 -54.7281 619.28 -151.586 619.28 -151.586L-163.594 13.0609L-54.6062 531.28C-54.6062 531.28 -10.4539 536.811 27.0556 514.106C129.342 452.191 139.791 225.895 294.342 126.294C391.159 63.8994 482.317 95.2271 544.193 34.2379Z" fill="url(#paint4_linear_1_28)"/>
</g>
<defs>
<linearGradient id="paint0_linear_1_28" x1="-43" y1="-127.5" x2="666" y2="928" gradientUnits="userSpaceOnUse">
<stop stop-color="#EB99E4"/>
<stop offset="1" stop-color="#7176F6"/>
</linearGradient>
<linearGradient id="paint1_linear_1_28" x1="264.5" y1="668" x2="264.5" y2="718" gradientUnits="userSpaceOnUse">
<stop stop-color="#FFA19D"/>
<stop offset="1" stop-color="#FF534D"/>
</linearGradient>
<linearGradient id="paint2_linear_1_28" x1="255.858" y1="825.867" x2="441.906" y2="1127.14" gradientUnits="userSpaceOnUse">
<stop stop-color="#D9D9D9" stop-opacity="0.8"/>
<stop offset="1" stop-color="#D9D9D9" stop-opacity="0"/>
</linearGradient>
<linearGradient id="paint3_linear_1_28" x1="249.966" y1="688.453" x2="489.566" y2="949.168" gradientUnits="userSpaceOnUse">
<stop stop-color="#D9D9D9" stop-opacity="0.8"/>
<stop offset="1" stop-color="#D9D9D9" stop-opacity="0"/>
</linearGradient>
<linearGradient id="paint4_linear_1_28" x1="444.703" y1="228.016" x2="156.575" y2="22.1952" gradientUnits="userSpaceOnUse">
<stop stop-color="#D9D9D9" stop-opacity="0.8"/>
<stop offset="1" stop-color="#D9D9D9" stop-opacity="0"/>
</linearGradient>
<clipPath id="clip0_1_28">
<rect width="800" height="1024" fill="white"/>
</clipPath>
<clipPath id="clip1_1_28">
<rect width="30" height="30" fill="white" transform="translate(137 678)"/>
</clipPath>
</defs>
</svg>
